<?xml version="1.0" encoding="UTF-8" standalone="yes"?>
<!DOCTYPE svg PUBLIC "-//W3C//DTD SVG 1.0//EN" "http://www.w3.org/TR/2001/REC-SVG-20010904/DTD/svg10.dtd">
<svg height="100%" viewBox="0 0 22 15" width="100%" xmlns="http://www.w3.org/2000/svg" xmlns:svg="http://www.w3.org/2000/svg" xmlns:xlink="http://www.w3.org/1999/xlink">

<circle cx="0.5" cy="0.5" fill="transparent" font-size="0.2" r="0.5" stroke="blue" stroke-width="0.02"/>
<circle cx="1.5" cy="1.5" fill="transparent" font-size="0.2" r="0.5" stroke="blue" stroke-width="0.02"/>
<circle cx="2.5" cy="2.5" fill="transparent" font-size="0.2" r="0.5" stroke="blue" stroke-width="0.02"/>
<circle cx="3.5" cy="3.5" fill="transparent" font-size="0.2" r="0.5" stroke="blue" stroke-width="0.02"/>
<circle cx="4.5" cy="4.5" fill="transparent" font-size="0.2" r="0.5" stroke="blue" stroke-width="0.02"/>
<circle cx="5.5" cy="5.5" fill="transparent" font-size="0.2" r="0.5" stroke="blue" stroke-width="0.02"/>
<circle cx="6.5" cy="6.5" fill="transparent" font-size="0.2" r="0.5" stroke="blue" stroke-width="0.02"/>
<circle cx="7.5" cy="7.5" fill="transparent" font-size="0.2" r="0.5" stroke="blue" stroke-width="0.02"/>
<rect fill="transparent" font-size="0.2" height="1" stroke="green" stroke-width="0.02" width="2" x="8" y="8"/>
<rect fill="transparent" font-size="0.2" height="1" stroke="green" stroke-width="0.02" width="2" x="10" y="9"/>
<rect fill="transparent" font-size="0.2" height="1" stroke="green" stroke-width="0.02" width="2" x="12" y="10"/>
<rect fill="transparent" font-size="0.2" height="1" stroke="green" stroke-width="0.02" width="2" x="14" y="11"/>
<rect fill="transparent" font-size="0.2" height="1" stroke="green" stroke-width="0.02" width="4" x="16" y="12"/>
<circle cx="20.5" cy="13.5" fill="transparent" font-size="0.2" r="0.5" stroke="red" stroke-width="0.02"/>
<text dominant-baseline="auto" fill="black" font-size="0.2" stroke-width="0.02" text-anchor="middle" x="4.5" y="3.5">a4</text>
<text dominant-baseline="auto" fill="black" font-size="0.2" stroke-width="0.02" text-anchor="middle" x="5.5" y="3.5">a4</text>
<text dominant-baseline="auto" fill="black" font-size="0.2" stroke-width="0.02" text-anchor="middle" x="6.5" y="3.5">a4</text>
<text dominant-baseline="auto" fill="black" font-size="0.2" stroke-width="0.02" text-anchor="middle" x="7.5" y="3.5">a4</text>
<text dominant-baseline="auto" fill="black" font-size="0.2" stroke-width="0.02" text-anchor="middle" x="8.5" y="3.5">a4</text>
<text dominant-baseline="auto" fill="black" font-size="0.2" stroke-width="0.02" text-anchor="middle" x="9.5" y="3.5">a4</text>
<text dominant-baseline="auto" fill="black" font-size="0.2" stroke-width="0.02" text-anchor="middle" x="10.5" y="3.5">a4</text>
<text dominant-baseline="auto" fill="black" font-size="0.2" stroke-width="0.02" text-anchor="middle" x="11.5" y="3.5">a4</text>
<text dominant-baseline="hanging" fill="red" font-size="0.2" stroke-width="0.02" text-anchor="middle" x="11.5" y="3.5">a4</text>
<text dominant-baseline="auto" fill="black" font-size="0.2" stroke-width="0.02" text-anchor="middle" x="11.5" y="4.5">a4</text>
<text dominant-baseline="hanging" fill="red" font-size="0.2" stroke-width="0.02" text-anchor="middle" x="11.5" y="4.5">a4</text>
<text dominant-baseline="auto" fill="black" font-size="0.2" stroke-width="0.02" text-anchor="middle" x="12.5" y="4.5">a4</text>
<text dominant-baseline="auto" fill="black" font-size="0.2" stroke-width="0.02" text-anchor="middle" x="13.5" y="4.5">a4</text>
<text dominant-baseline="hanging" fill="red" font-size="0.2" stroke-width="0.02" text-anchor="middle" x="13.5" y="4.5">a4</text>
<text dominant-baseline="auto" fill="black" font-size="0.2" stroke-width="0.02" text-anchor="middle" x="13.5" y="5.5">a4</text>
<text dominant-baseline="hanging" fill="red" font-size="0.2" stroke-width="0.02" text-anchor="middle" x="13.5" y="5.5">a4</text>
<text dominant-baseline="auto" fill="black" font-size="0.2" stroke-width="0.02" text-anchor="middle" x="14.5" y="5.5">a4</text>
<text dominant-baseline="hanging" fill="red" font-size="0.2" stroke-width="0.02" text-anchor="middle" x="14.5" y="5.5">a4</text>
<text dominant-baseline="hanging" fill="red" font-size="0.2" stroke-width="0.02" text-anchor="middle" x="14.5" y="6.5">a4</text>
<text dominant-baseline="hanging" fill="red" font-size="0.2" stroke-width="0.02" text-anchor="middle" x="14.5" y="7.5">a4</text>
<text dominant-baseline="hanging" fill="red" font-size="0.2" stroke-width="0.02" text-anchor="middle" x="14.5" y="8.5">a4</text>
<text dominant-baseline="hanging" fill="red" font-size="0.2" stroke-width="0.02" text-anchor="middle" x="14.5" y="9.5">a4</text>
<text dominant-baseline="hanging" fill="red" font-size="0.2" stroke-width="0.02" text-anchor="middle" x="14.5" y="10.5">a4</text>
<line fill="transparent" font-size="0.2" opacity="0.2" stroke="black" stroke-width="0.022" x1="0" x2="0" y1="0" y2="15"/>
<line fill="transparent" font-size="0.2" opacity="0.2" stroke="black" stroke-width="0.022" x1="1" x2="1" y1="0" y2="15"/>
<line fill="transparent" font-size="0.2" opacity="0.2" stroke="black" stroke-width="0.022" x1="2" x2="2" y1="0" y2="15"/>
<line fill="transparent" font-size="0.2" opacity="0.2" stroke="black" stroke-width="0.022" x1="3" x2="3" y1="0" y2="15"/>
<line fill="transparent" font-size="0.2" opacity="0.2" stroke="black" stroke-width="0.022" x1="4" x2="4" y1="0" y2="15"/>
<line fill="transparent" font-size="0.2" opacity="0.2" stroke="black" stroke-width="0.022" x1="5" x2="5" y1="0" y2="15"/>
<line fill="transparent" font-size="0.2" opacity="0.2" stroke="black" stroke-width="0.022" x1="6" x2="6" y1="0" y2="15"/>
<line fill="transparent" font-size="0.2" opacity="0.2" stroke="black" stroke-width="0.022" x1="7" x2="7" y1="0" y2="15"/>
<line fill="transparent" font-size="0.2" opacity="0.2" stroke="black" stroke-width="0.022" x1="8" x2="8" y1="0" y2="15"/>
<line fill="transparent" font-size="0.2" opacity="0.2" stroke="black" stroke-width="0.022" x1="9" x2="9" y1="0" y2="15"/>
<line fill="transparent" font-size="0.2" opacity="0.2" stroke="black" stroke-width="0.022" x1="10" x2="10" y1="0" y2="15"/>
<line fill="transparent" font-size="0.2" opacity="0.2" stroke="black" stroke-width="0.022" x1="11" x2="11" y1="0" y2="15"/>
<line fill="transparent" font-size="0.2" opacity="0.2" stroke="black" stroke-width="0.022" x1="12" x2="12" y1="0" y2="15"/>
<line fill="transparent" font-size="0.2" opacity="0.2" stroke="black" stroke-width="0.022" x1="13" x2="13" y1="0" y2="15"/>
<line fill="transparent" font-size="0.2" opacity="0.2" stroke="black" stroke-width="0.022" x1="14" x2="14" y1="0" y2="15"/>
<line fill="transparent" font-size="0.2" opacity="0.2" stroke="black" stroke-width="0.022" x1="15" x2="15" y1="0" y2="15"/>
<line fill="transparent" font-size="0.2" opacity="0.2" stroke="black" stroke-width="0.022" x1="16" x2="16" y1="0" y2="15"/>
<line fill="transparent" font-size="0.2" opacity="0.2" stroke="black" stroke-width="0.022" x1="17" x2="17" y1="0" y2="15"/>
<line fill="transparent" font-size="0.2" opacity="0.2" stroke="black" stroke-width="0.022" x1="18" x2="18" y1="0" y2="15"/>
<line fill="transparent" font-size="0.2" opacity="0.2" stroke="black" stroke-width="0.022" x1="19" x2="19" y1="0" y2="15"/>
<line fill="transparent" font-size="0.2" opacity="0.2" stroke="black" stroke-width="0.022" x1="20" x2="20" y1="0" y2="15"/>
<line fill="transparent" font-size="0.2" opacity="0.2" stroke="black" stroke-width="0.022" x1="21" x2="21" y1="0" y2="15"/>
<line fill="transparent" font-size="0.2" opacity="0.2" stroke="black" stroke-width="0.022" x1="22" x2="22" y1="0" y2="15"/>
<line fill="transparent" font-size="0.2" opacity="0.2" stroke="black" stroke-width="0.015" x1="0" x2="22" y1="0" y2="0"/>
<line fill="transparent" font-size="0.2" opacity="0.2" stroke="black" stroke-width="0.015" x1="0" x2="22" y1="1" y2="1"/>
<line fill="transparent" font-size="0.2" opacity="0.2" stroke="black" stroke-width="0.015" x1="0" x2="22" y1="2" y2="2"/>
<line fill="transparent" font-size="0.2" opacity="0.2" stroke="black" stroke-width="0.015" x1="0" x2="22" y1="3" y2="3"/>
<line fill="transparent" font-size="0.2" opacity="0.2" stroke="black" stroke-width="0.015" x1="0" x2="22" y1="4" y2="4"/>
<line fill="transparent" font-size="0.2" opacity="0.2" stroke="black" stroke-width="0.015" x1="0" x2="22" y1="5" y2="5"/>
<line fill="transparent" font-size="0.2" opacity="0.2" stroke="black" stroke-width="0.015" x1="0" x2="22" y1="6" y2="6"/>
<line fill="transparent" font-size="0.2" opacity="0.2" stroke="black" stroke-width="0.015" x1="0" x2="22" y1="7" y2="7"/>
<line fill="transparent" font-size="0.2" opacity="0.2" stroke="black" stroke-width="0.015" x1="0" x2="22" y1="8" y2="8"/>
<line fill="transparent" font-size="0.2" opacity="0.2" stroke="black" stroke-width="0.015" x1="0" x2="22" y1="9" y2="9"/>
<line fill="transparent" font-size="0.2" opacity="0.2" stroke="black" stroke-width="0.015" x1="0" x2="22" y1="10" y2="10"/>
<line fill="transparent" font-size="0.2" opacity="0.2" stroke="black" stroke-width="0.015" x1="0" x2="22" y1="11" y2="11"/>
<line fill="transparent" font-size="0.2" opacity="0.2" stroke="black" stroke-width="0.015" x1="0" x2="22" y1="12" y2="12"/>
<line fill="transparent" font-size="0.2" opacity="0.2" stroke="black" stroke-width="0.015" x1="0" x2="22" y1="13" y2="13"/>
<line fill="transparent" font-size="0.2" opacity="0.2" stroke="black" stroke-width="0.015" x1="0" x2="22" y1="14" y2="14"/>
<line fill="transparent" font-size="0.2" opacity="0.2" stroke="black" stroke-width="0.015" x1="0" x2="22" y1="15" y2="15"/>
</svg>
