<?xml version="1.0" encoding="UTF-8" standalone="yes"?>
<!DOCTYPE svg PUBLIC "-//W3C//DTD SVG 1.0//EN" "http://www.w3.org/TR/2001/REC-SVG-20010904/DTD/svg10.dtd">
<svg height="100%" viewBox="0 0 38 26" width="100%" xmlns="http://www.w3.org/2000/svg" xmlns:svg="http://www.w3.org/2000/svg" xmlns:xlink="http://www.w3.org/1999/xlink">

<text fill="darkGreen" font-size="0.4" stroke-width="0.04" text-anchor="end" x="37" y="0.5" z="-1">Choose one of 4 words of 3 bits
</text>
<text fill="darkGreen" font-size="0.4" stroke-width="0.04" text-anchor="end" x="37" y="1.5" z="-1">3 steps</text>
<line font-size="0.2" stroke="#DC143C" stroke-width="0.02" x1="0.5" x2="1.5" y1="1.5" y2="1.5"/>
<line font-size="0.2" opacity="0.3" stroke="blue" stroke-width="0.08" x1="0.5" x2="0.5" y1="1" y2="1.5"/>
<circle cx="0.5" cy="1.5" fill="blue" font-size="0.2" opacity="0.3" r="0.12" stroke-width="0.02"/>
<line font-size="0.2" stroke="#DC143C" stroke-width="0.02" x1="1.5" x2="3.5" y1="2.5" y2="2.5"/>
<line font-size="0.2" opacity="0.3" stroke="blue" stroke-width="0.08" x1="1.5" x2="1.5" y1="1" y2="2.5"/>
<circle cx="1.5" cy="2.5" fill="blue" font-size="0.2" opacity="0.3" r="0.12" stroke-width="0.02"/>
<line font-size="0.2" stroke="#DC143C" stroke-width="0.02" x1="2.5" x2="5.5" y1="1.5" y2="1.5"/>
<line font-size="0.2" opacity="0.3" stroke="blue" stroke-width="0.08" x1="2.5" x2="2.5" y1="1" y2="1.5"/>
<circle cx="2.5" cy="1.5" fill="blue" font-size="0.2" opacity="0.3" r="0.12" stroke-width="0.02"/>
<line font-size="0.2" stroke="#DC143C" stroke-width="0.02" x1="3.5" x2="7.5" y1="3.5" y2="3.5"/>
<line font-size="0.2" opacity="0.3" stroke="blue" stroke-width="0.08" x1="3.5" x2="3.5" y1="1" y2="3.5"/>
<circle cx="3.5" cy="3.5" fill="blue" font-size="0.2" opacity="0.3" r="0.12" stroke-width="0.02"/>
<line font-size="0.2" stroke="#DC143C" stroke-width="0.02" x1="4.5" x2="9.5" y1="2.5" y2="2.5"/>
<line font-size="0.2" opacity="0.3" stroke="blue" stroke-width="0.08" x1="4.5" x2="4.5" y1="1" y2="2.5"/>
<circle cx="4.5" cy="2.5" fill="blue" font-size="0.2" opacity="0.3" r="0.12" stroke-width="0.02"/>
<line font-size="0.2" stroke="#DC143C" stroke-width="0.02" x1="5.5" x2="11.5" y1="4.5" y2="4.5"/>
<line font-size="0.2" opacity="0.3" stroke="blue" stroke-width="0.08" x1="5.5" x2="5.5" y1="1" y2="4.5"/>
<circle cx="5.5" cy="4.5" fill="blue" font-size="0.2" opacity="0.3" r="0.12" stroke-width="0.02"/>
<line font-size="0.2" stroke="#DC143C" stroke-width="0.02" x1="6.5" x2="13.5" y1="1.5" y2="1.5"/>
<line font-size="0.2" opacity="0.3" stroke="blue" stroke-width="0.08" x1="6.5" x2="6.5" y1="1" y2="1.5"/>
<circle cx="6.5" cy="1.5" fill="blue" font-size="0.2" opacity="0.3" r="0.12" stroke-width="0.02"/>
<line font-size="0.2" stroke="#DC143C" stroke-width="0.02" x1="7.5" x2="15.5" y1="5.5" y2="5.5"/>
<line font-size="0.2" opacity="0.3" stroke="blue" stroke-width="0.08" x1="7.5" x2="7.5" y1="1" y2="5.5"/>
<circle cx="7.5" cy="5.5" fill="blue" font-size="0.2" opacity="0.3" r="0.12" stroke-width="0.02"/>
<line font-size="0.2" stroke="#DC143C" stroke-width="0.02" x1="8.5" x2="17.5" y1="3.5" y2="3.5"/>
<line font-size="0.2" opacity="0.3" stroke="blue" stroke-width="0.08" x1="8.5" x2="8.5" y1="1" y2="3.5"/>
<circle cx="8.5" cy="3.5" fill="blue" font-size="0.2" opacity="0.3" r="0.12" stroke-width="0.02"/>
<line font-size="0.2" stroke="#DC143C" stroke-width="0.02" x1="9.5" x2="19.5" y1="6.5" y2="6.5"/>
<line font-size="0.2" opacity="0.3" stroke="blue" stroke-width="0.08" x1="9.5" x2="9.5" y1="1" y2="6.5"/>
<circle cx="9.5" cy="6.5" fill="blue" font-size="0.2" opacity="0.3" r="0.12" stroke-width="0.02"/>
<line font-size="0.2" stroke="#DC143C" stroke-width="0.02" x1="10.5" x2="21.5" y1="2.5" y2="2.5"/>
<line font-size="0.2" opacity="0.3" stroke="blue" stroke-width="0.08" x1="10.5" x2="10.5" y1="1" y2="2.5"/>
<circle cx="10.5" cy="2.5" fill="blue" font-size="0.2" opacity="0.3" r="0.12" stroke-width="0.02"/>
<line font-size="0.2" stroke="#DC143C" stroke-width="0.02" x1="11.5" x2="23.5" y1="7.5" y2="7.5"/>
<line font-size="0.2" opacity="0.3" stroke="blue" stroke-width="0.08" x1="11.5" x2="11.5" y1="1" y2="7.5"/>
<circle cx="11.5" cy="7.5" fill="blue" font-size="0.2" opacity="0.3" r="0.12" stroke-width="0.02"/>
<line font-size="0.2" stroke="#DC143C" stroke-width="0.02" x1="0.5" x2="12.5" y1="8.5" y2="8.5"/>
<line font-size="0.2" opacity="0.3" stroke="blue" stroke-width="0.08" x1="12.5" x2="12.5" y1="1" y2="8.5"/>
<circle cx="12.5" cy="8.5" fill="blue" font-size="0.2" opacity="0.3" r="0.12" stroke-width="0.02"/>
<line font-size="0.2" stroke="#DC143C" stroke-width="0.02" x1="6.5" x2="13.5" y1="9.5" y2="9.5"/>
<line font-size="0.2" opacity="0.3" stroke="blue" stroke-width="0.08" x1="13.5" x2="13.5" y1="1" y2="9.5"/>
<circle cx="13.5" cy="9.5" fill="blue" font-size="0.2" opacity="0.3" r="0.12" stroke-width="0.02"/>
<line font-size="0.2" stroke="#DC143C" stroke-width="0.02" x1="12.5" x2="16.5" y1="4.5" y2="4.5"/>
<line font-size="0.2" opacity="0.3" stroke="blue" stroke-width="0.08" x1="14.5" x2="14.5" y1="1" y2="4.5"/>
<circle cx="14.5" cy="4.5" fill="blue" font-size="0.2" opacity="0.3" r="0.12" stroke-width="0.02"/>
<line font-size="0.2" stroke="#DC143C" stroke-width="0.02" x1="15.5" x2="22.5" y1="1.5" y2="1.5"/>
<line font-size="0.2" opacity="0.3" stroke="blue" stroke-width="0.08" x1="15.5" x2="15.5" y1="1" y2="1.5"/>
<circle cx="15.5" cy="1.5" fill="blue" font-size="0.2" opacity="0.3" r="0.12" stroke-width="0.02"/>
<rect fill="transparent" font-size="0.2" height="1" stroke="green" stroke-width="0.02" width="2" x="0" y="10"/>
<text dominant-baseline="hanging" fill="black" font-size="0.4" stroke-width="0.04" text-anchor="start" x="0" y="10">0</text>
<text fill="black" font-size="0.2" stroke-width="0.02" text-anchor="end" x="2" y="11">1</text>
<text dominant-baseline="auto" fill="red" font-size="0.2" stroke-width="0.02" text-anchor="middle" x="1" y="10.4166666666667">and</text>
<text dominant-baseline="hanging" fill="darkblue" font-size="0.2" stroke-width="0.02" text-anchor="middle" x="1" y="10.5833333333333">W.a_1_1</text>
<line font-size="0.2" stroke="purple" stroke-width="0.02" x1="0.5" x2="0.5" y1="8.5" y2="10"/>
<circle cx="0.5" cy="8.5" fill="red" font-size="0.2" r="0.06" stroke-width="0.02"/>
<circle cx="0.5" cy="10" fill="blue" font-size="0.2" r="0.04" stroke-width="0.02"/>
<text fill="black" font-size="0.2" stroke-width="0.02" text-anchor="middle" x="0.5" y="10.2">0</text>
<line font-size="0.2" stroke="purple" stroke-width="0.02" x1="1.5" x2="1.5" y1="1.5" y2="10"/>
<circle cx="1.5" cy="1.5" fill="red" font-size="0.2" r="0.06" stroke-width="0.02"/>
<circle cx="1.5" cy="10" fill="blue" font-size="0.2" r="0.04" stroke-width="0.02"/>
<text fill="black" font-size="0.2" stroke-width="0.02" text-anchor="middle" x="1.5" y="10.2">0</text>
<rect fill="transparent" font-size="0.2" height="1" stroke="green" stroke-width="0.02" width="2" x="2" y="11"/>
<text dominant-baseline="hanging" fill="black" font-size="0.4" stroke-width="0.04" text-anchor="start" x="2" y="11">0</text>
<text fill="black" font-size="0.2" stroke-width="0.02" text-anchor="end" x="4" y="12">1</text>
<text dominant-baseline="auto" fill="red" font-size="0.2" stroke-width="0.02" text-anchor="middle" x="3" y="11.4166666666667">and</text>
<text dominant-baseline="hanging" fill="darkblue" font-size="0.2" stroke-width="0.02" text-anchor="middle" x="3" y="11.5833333333333">W.a_1_2</text>
<line font-size="0.2" stroke="purple" stroke-width="0.02" x1="2.5" x2="2.5" y1="8.5" y2="11"/>
<circle cx="2.5" cy="8.5" fill="red" font-size="0.2" r="0.06" stroke-width="0.02"/>
<circle cx="2.5" cy="11" fill="blue" font-size="0.2" r="0.04" stroke-width="0.02"/>
<text fill="black" font-size="0.2" stroke-width="0.02" text-anchor="middle" x="2.5" y="11.2">0</text>
<line font-size="0.2" stroke="purple" stroke-width="0.02" x1="3.5" x2="3.5" y1="2.5" y2="11"/>
<circle cx="3.5" cy="2.5" fill="red" font-size="0.2" r="0.06" stroke-width="0.02"/>
<circle cx="3.5" cy="11" fill="blue" font-size="0.2" r="0.04" stroke-width="0.02"/>
<text fill="black" font-size="0.2" stroke-width="0.02" text-anchor="middle" x="3.5" y="11.2">0</text>
<rect fill="transparent" font-size="0.2" height="1" stroke="green" stroke-width="0.02" width="2" x="4" y="12"/>
<text dominant-baseline="hanging" fill="black" font-size="0.4" stroke-width="0.04" text-anchor="start" x="4" y="12">0</text>
<text fill="black" font-size="0.2" stroke-width="0.02" text-anchor="end" x="6" y="13">1</text>
<text dominant-baseline="auto" fill="red" font-size="0.2" stroke-width="0.02" text-anchor="middle" x="5" y="12.4166666666667">and</text>
<text dominant-baseline="hanging" fill="darkblue" font-size="0.2" stroke-width="0.02" text-anchor="middle" x="5" y="12.5833333333333">W.a_1_3</text>
<line font-size="0.2" stroke="purple" stroke-width="0.02" x1="4.5" x2="4.5" y1="8.5" y2="12"/>
<circle cx="4.5" cy="8.5" fill="red" font-size="0.2" r="0.06" stroke-width="0.02"/>
<circle cx="4.5" cy="12" fill="blue" font-size="0.2" r="0.04" stroke-width="0.02"/>
<text fill="black" font-size="0.2" stroke-width="0.02" text-anchor="middle" x="4.5" y="12.2">0</text>
<line font-size="0.2" stroke="purple" stroke-width="0.02" x1="5.5" x2="5.5" y1="1.5" y2="12"/>
<circle cx="5.5" cy="1.5" fill="red" font-size="0.2" r="0.06" stroke-width="0.02"/>
<circle cx="5.5" cy="12" fill="blue" font-size="0.2" r="0.04" stroke-width="0.02"/>
<text fill="black" font-size="0.2" stroke-width="0.02" text-anchor="middle" x="5.5" y="12.2">0</text>
<rect fill="transparent" font-size="0.2" height="1" stroke="green" stroke-width="0.02" width="2" x="6" y="13"/>
<text dominant-baseline="hanging" fill="black" font-size="0.4" stroke-width="0.04" text-anchor="start" x="6" y="13">0</text>
<text fill="black" font-size="0.2" stroke-width="0.02" text-anchor="end" x="8" y="14">1</text>
<text dominant-baseline="auto" fill="red" font-size="0.2" stroke-width="0.02" text-anchor="middle" x="7" y="13.4166666666667">and</text>
<text dominant-baseline="hanging" fill="darkblue" font-size="0.2" stroke-width="0.02" text-anchor="middle" x="7" y="13.5833333333333">W.a_2_1</text>
<line font-size="0.2" stroke="purple" stroke-width="0.02" x1="6.5" x2="6.5" y1="9.5" y2="13"/>
<circle cx="6.5" cy="9.5" fill="red" font-size="0.2" r="0.06" stroke-width="0.02"/>
<circle cx="6.5" cy="13" fill="blue" font-size="0.2" r="0.04" stroke-width="0.02"/>
<text fill="black" font-size="0.2" stroke-width="0.02" text-anchor="middle" x="6.5" y="13.2">0</text>
<line font-size="0.2" stroke="purple" stroke-width="0.02" x1="7.5" x2="7.5" y1="3.5" y2="13"/>
<circle cx="7.5" cy="3.5" fill="red" font-size="0.2" r="0.06" stroke-width="0.02"/>
<circle cx="7.5" cy="13" fill="blue" font-size="0.2" r="0.04" stroke-width="0.02"/>
<text fill="black" font-size="0.2" stroke-width="0.02" text-anchor="middle" x="7.5" y="13.2">1</text>
<rect fill="transparent" font-size="0.2" height="1" stroke="green" stroke-width="0.02" width="2" x="8" y="14"/>
<text dominant-baseline="hanging" fill="black" font-size="0.4" stroke-width="0.04" text-anchor="start" x="8" y="14">0</text>
<text fill="black" font-size="0.2" stroke-width="0.02" text-anchor="end" x="10" y="15">1</text>
<text dominant-baseline="auto" fill="red" font-size="0.2" stroke-width="0.02" text-anchor="middle" x="9" y="14.4166666666667">and</text>
<text dominant-baseline="hanging" fill="darkblue" font-size="0.2" stroke-width="0.02" text-anchor="middle" x="9" y="14.5833333333333">W.a_2_2</text>
<line font-size="0.2" stroke="purple" stroke-width="0.02" x1="8.5" x2="8.5" y1="9.5" y2="14"/>
<circle cx="8.5" cy="9.5" fill="red" font-size="0.2" r="0.06" stroke-width="0.02"/>
<circle cx="8.5" cy="14" fill="blue" font-size="0.2" r="0.04" stroke-width="0.02"/>
<text fill="black" font-size="0.2" stroke-width="0.02" text-anchor="middle" x="8.5" y="14.2">0</text>
<line font-size="0.2" stroke="purple" stroke-width="0.02" x1="9.5" x2="9.5" y1="2.5" y2="14"/>
<circle cx="9.5" cy="2.5" fill="red" font-size="0.2" r="0.06" stroke-width="0.02"/>
<circle cx="9.5" cy="14" fill="blue" font-size="0.2" r="0.04" stroke-width="0.02"/>
<text fill="black" font-size="0.2" stroke-width="0.02" text-anchor="middle" x="9.5" y="14.2">0</text>
<rect fill="transparent" font-size="0.2" height="1" stroke="green" stroke-width="0.02" width="2" x="10" y="15"/>
<text dominant-baseline="hanging" fill="black" font-size="0.4" stroke-width="0.04" text-anchor="start" x="10" y="15">0</text>
<text fill="black" font-size="0.2" stroke-width="0.02" text-anchor="end" x="12" y="16">1</text>
<text dominant-baseline="auto" fill="red" font-size="0.2" stroke-width="0.02" text-anchor="middle" x="11" y="15.4166666666667">and</text>
<text dominant-baseline="hanging" fill="darkblue" font-size="0.2" stroke-width="0.02" text-anchor="middle" x="11" y="15.5833333333333">W.a_2_3</text>
<line font-size="0.2" stroke="purple" stroke-width="0.02" x1="10.5" x2="10.5" y1="9.5" y2="15"/>
<circle cx="10.5" cy="9.5" fill="red" font-size="0.2" r="0.06" stroke-width="0.02"/>
<circle cx="10.5" cy="15" fill="blue" font-size="0.2" r="0.04" stroke-width="0.02"/>
<text fill="black" font-size="0.2" stroke-width="0.02" text-anchor="middle" x="10.5" y="15.2">0</text>
<line font-size="0.2" stroke="purple" stroke-width="0.02" x1="11.5" x2="11.5" y1="4.5" y2="15"/>
<circle cx="11.5" cy="4.5" fill="red" font-size="0.2" r="0.06" stroke-width="0.02"/>
<circle cx="11.5" cy="15" fill="blue" font-size="0.2" r="0.04" stroke-width="0.02"/>
<text fill="black" font-size="0.2" stroke-width="0.02" text-anchor="middle" x="11.5" y="15.2">0</text>
<rect fill="transparent" font-size="0.2" height="1" stroke="green" stroke-width="0.02" width="2" x="12" y="16"/>
<text dominant-baseline="hanging" fill="black" font-size="0.4" stroke-width="0.04" text-anchor="start" x="12" y="16">0</text>
<text fill="black" font-size="0.2" stroke-width="0.02" text-anchor="end" x="14" y="17">1</text>
<text dominant-baseline="auto" fill="red" font-size="0.2" stroke-width="0.02" text-anchor="middle" x="13" y="16.4166666666667">and</text>
<text dominant-baseline="hanging" fill="darkblue" font-size="0.2" stroke-width="0.02" text-anchor="middle" x="13" y="16.5833333333333">W.a_3_1</text>
<line font-size="0.2" stroke="purple" stroke-width="0.02" x1="12.5" x2="12.5" y1="4.5" y2="16"/>
<circle cx="12.5" cy="4.5" fill="red" font-size="0.2" r="0.06" stroke-width="0.02"/>
<circle cx="12.5" cy="16" fill="blue" font-size="0.2" r="0.04" stroke-width="0.02"/>
<text fill="black" font-size="0.2" stroke-width="0.02" text-anchor="middle" x="12.5" y="16.2">1</text>
<line font-size="0.2" stroke="purple" stroke-width="0.02" x1="13.5" x2="13.5" y1="1.5" y2="16"/>
<circle cx="13.5" cy="1.5" fill="red" font-size="0.2" r="0.06" stroke-width="0.02"/>
<circle cx="13.5" cy="16" fill="blue" font-size="0.2" r="0.04" stroke-width="0.02"/>
<text fill="black" font-size="0.2" stroke-width="0.02" text-anchor="middle" x="13.5" y="16.2">0</text>
<rect fill="transparent" font-size="0.2" height="1" stroke="green" stroke-width="0.02" width="2" x="14" y="17"/>
<text dominant-baseline="hanging" fill="black" font-size="0.4" stroke-width="0.04" text-anchor="start" x="14" y="17">1</text>
<text fill="black" font-size="0.2" stroke-width="0.02" text-anchor="end" x="16" y="18">1</text>
<text dominant-baseline="auto" fill="red" font-size="0.2" stroke-width="0.02" text-anchor="middle" x="15" y="17.4166666666667">and</text>
<text dominant-baseline="hanging" fill="darkblue" font-size="0.2" stroke-width="0.02" text-anchor="middle" x="15" y="17.5833333333333">W.a_3_2</text>
<line font-size="0.2" stroke="purple" stroke-width="0.02" x1="14.5" x2="14.5" y1="4.5" y2="17"/>
<circle cx="14.5" cy="4.5" fill="red" font-size="0.2" r="0.06" stroke-width="0.02"/>
<circle cx="14.5" cy="17" fill="blue" font-size="0.2" r="0.04" stroke-width="0.02"/>
<text fill="black" font-size="0.2" stroke-width="0.02" text-anchor="middle" x="14.5" y="17.2">1</text>
<line font-size="0.2" stroke="purple" stroke-width="0.02" x1="15.5" x2="15.5" y1="5.5" y2="17"/>
<circle cx="15.5" cy="5.5" fill="red" font-size="0.2" r="0.06" stroke-width="0.02"/>
<circle cx="15.5" cy="17" fill="blue" font-size="0.2" r="0.04" stroke-width="0.02"/>
<text fill="black" font-size="0.2" stroke-width="0.02" text-anchor="middle" x="15.5" y="17.2">1</text>
<rect fill="transparent" font-size="0.2" height="1" stroke="green" stroke-width="0.02" width="2" x="16" y="18"/>
<text dominant-baseline="hanging" fill="black" font-size="0.4" stroke-width="0.04" text-anchor="start" x="16" y="18">0</text>
<text fill="black" font-size="0.2" stroke-width="0.02" text-anchor="end" x="18" y="19">1</text>
<text dominant-baseline="auto" fill="red" font-size="0.2" stroke-width="0.02" text-anchor="middle" x="17" y="18.4166666666667">and</text>
<text dominant-baseline="hanging" fill="darkblue" font-size="0.2" stroke-width="0.02" text-anchor="middle" x="17" y="18.5833333333333">W.a_3_3</text>
<line font-size="0.2" stroke="purple" stroke-width="0.02" x1="16.5" x2="16.5" y1="4.5" y2="18"/>
<circle cx="16.5" cy="4.5" fill="red" font-size="0.2" r="0.06" stroke-width="0.02"/>
<circle cx="16.5" cy="18" fill="blue" font-size="0.2" r="0.04" stroke-width="0.02"/>
<text fill="black" font-size="0.2" stroke-width="0.02" text-anchor="middle" x="16.5" y="18.2">1</text>
<line font-size="0.2" stroke="purple" stroke-width="0.02" x1="17.5" x2="17.5" y1="3.5" y2="18"/>
<circle cx="17.5" cy="3.5" fill="red" font-size="0.2" r="0.06" stroke-width="0.02"/>
<circle cx="17.5" cy="18" fill="blue" font-size="0.2" r="0.04" stroke-width="0.02"/>
<text fill="black" font-size="0.2" stroke-width="0.02" text-anchor="middle" x="17.5" y="18.2">0</text>
<rect fill="transparent" font-size="0.2" height="1" stroke="green" stroke-width="0.02" width="2" x="18" y="19"/>
<text dominant-baseline="hanging" fill="black" font-size="0.4" stroke-width="0.04" text-anchor="start" x="18" y="19">0</text>
<text fill="black" font-size="0.2" stroke-width="0.02" text-anchor="end" x="20" y="20">1</text>
<text dominant-baseline="auto" fill="red" font-size="0.2" stroke-width="0.02" text-anchor="middle" x="19" y="19.4166666666667">and</text>
<text dominant-baseline="hanging" fill="darkblue" font-size="0.2" stroke-width="0.02" text-anchor="middle" x="19" y="19.5833333333333">W.a_4_1</text>
<line font-size="0.2" stroke="purple" stroke-width="0.02" x1="18.5" x2="18.5" y1="1.5" y2="19"/>
<circle cx="18.5" cy="1.5" fill="red" font-size="0.2" r="0.06" stroke-width="0.02"/>
<circle cx="18.5" cy="19" fill="blue" font-size="0.2" r="0.04" stroke-width="0.02"/>
<text fill="black" font-size="0.2" stroke-width="0.02" text-anchor="middle" x="18.5" y="19.2">0</text>
<line font-size="0.2" stroke="purple" stroke-width="0.02" x1="19.5" x2="19.5" y1="6.5" y2="19"/>
<circle cx="19.5" cy="6.5" fill="red" font-size="0.2" r="0.06" stroke-width="0.02"/>
<circle cx="19.5" cy="19" fill="blue" font-size="0.2" r="0.04" stroke-width="0.02"/>
<text fill="black" font-size="0.2" stroke-width="0.02" text-anchor="middle" x="19.5" y="19.2">0</text>
<rect fill="transparent" font-size="0.2" height="1" stroke="green" stroke-width="0.02" width="2" x="20" y="20"/>
<text dominant-baseline="hanging" fill="black" font-size="0.4" stroke-width="0.04" text-anchor="start" x="20" y="20">0</text>
<text fill="black" font-size="0.2" stroke-width="0.02" text-anchor="end" x="22" y="21">1</text>
<text dominant-baseline="auto" fill="red" font-size="0.2" stroke-width="0.02" text-anchor="middle" x="21" y="20.4166666666667">and</text>
<text dominant-baseline="hanging" fill="darkblue" font-size="0.2" stroke-width="0.02" text-anchor="middle" x="21" y="20.5833333333333">W.a_4_2</text>
<line font-size="0.2" stroke="purple" stroke-width="0.02" x1="20.5" x2="20.5" y1="1.5" y2="20"/>
<circle cx="20.5" cy="1.5" fill="red" font-size="0.2" r="0.06" stroke-width="0.02"/>
<circle cx="20.5" cy="20" fill="blue" font-size="0.2" r="0.04" stroke-width="0.02"/>
<text fill="black" font-size="0.2" stroke-width="0.02" text-anchor="middle" x="20.5" y="20.2">0</text>
<line font-size="0.2" stroke="purple" stroke-width="0.02" x1="21.5" x2="21.5" y1="2.5" y2="20"/>
<circle cx="21.5" cy="2.5" fill="red" font-size="0.2" r="0.06" stroke-width="0.02"/>
<circle cx="21.5" cy="20" fill="blue" font-size="0.2" r="0.04" stroke-width="0.02"/>
<text fill="black" font-size="0.2" stroke-width="0.02" text-anchor="middle" x="21.5" y="20.2">0</text>
<rect fill="transparent" font-size="0.2" height="1" stroke="green" stroke-width="0.02" width="2" x="22" y="21"/>
<text dominant-baseline="hanging" fill="black" font-size="0.4" stroke-width="0.04" text-anchor="start" x="22" y="21">0</text>
<text fill="black" font-size="0.2" stroke-width="0.02" text-anchor="end" x="24" y="22">1</text>
<text dominant-baseline="auto" fill="red" font-size="0.2" stroke-width="0.02" text-anchor="middle" x="23" y="21.4166666666667">and</text>
<text dominant-baseline="hanging" fill="darkblue" font-size="0.2" stroke-width="0.02" text-anchor="middle" x="23" y="21.5833333333333">W.a_4_3</text>
<line font-size="0.2" stroke="purple" stroke-width="0.02" x1="22.5" x2="22.5" y1="1.5" y2="21"/>
<circle cx="22.5" cy="1.5" fill="red" font-size="0.2" r="0.06" stroke-width="0.02"/>
<circle cx="22.5" cy="21" fill="blue" font-size="0.2" r="0.04" stroke-width="0.02"/>
<text fill="black" font-size="0.2" stroke-width="0.02" text-anchor="middle" x="22.5" y="21.2">0</text>
<line font-size="0.2" stroke="purple" stroke-width="0.02" x1="23.5" x2="23.5" y1="7.5" y2="21"/>
<circle cx="23.5" cy="7.5" fill="red" font-size="0.2" r="0.06" stroke-width="0.02"/>
<circle cx="23.5" cy="21" fill="blue" font-size="0.2" r="0.04" stroke-width="0.02"/>
<text fill="black" font-size="0.2" stroke-width="0.02" text-anchor="middle" x="23.5" y="21.2">1</text>
<rect fill="transparent" font-size="0.2" height="1" stroke="green" stroke-width="0.02" width="4" x="24" y="22"/>
<text dominant-baseline="hanging" fill="black" font-size="0.4" stroke-width="0.04" text-anchor="start" x="24" y="22">0</text>
<text fill="black" font-size="0.2" stroke-width="0.02" text-anchor="end" x="28" y="23">2</text>
<text dominant-baseline="auto" fill="red" font-size="0.2" stroke-width="0.02" text-anchor="middle" x="26" y="22.4166666666667">or</text>
<text dominant-baseline="hanging" fill="darkblue" font-size="0.2" stroke-width="0.02" text-anchor="middle" x="26" y="22.5833333333333">W_1</text>
<line font-size="0.2" stroke="black" stroke-width="0.02" x1="2" x2="24.5" y1="10.5" y2="10.5"/>
<line font-size="0.2" stroke="purple" stroke-width="0.02" x1="24.5" x2="24.5" y1="10.5" y2="22"/>
<circle cx="24.5" cy="10.5" fill="red" font-size="0.2" r="0.06" stroke-width="0.02"/>
<circle cx="24.5" cy="22" fill="blue" font-size="0.2" r="0.04" stroke-width="0.02"/>
<circle cx="2" cy="10.5" fill="red" font-size="0.2" r="0.04" stroke-width="0.02"/>
<text fill="black" font-size="0.2" stroke-width="0.02" text-anchor="middle" x="24.5" y="22.2">0</text>
<line font-size="0.2" stroke="black" stroke-width="0.02" x1="8" x2="25.5" y1="13.5" y2="13.5"/>
<line font-size="0.2" stroke="purple" stroke-width="0.02" x1="25.5" x2="25.5" y1="13.5" y2="22"/>
<circle cx="25.5" cy="13.5" fill="red" font-size="0.2" r="0.06" stroke-width="0.02"/>
<circle cx="25.5" cy="22" fill="blue" font-size="0.2" r="0.04" stroke-width="0.02"/>
<circle cx="8" cy="13.5" fill="red" font-size="0.2" r="0.04" stroke-width="0.02"/>
<text fill="black" font-size="0.2" stroke-width="0.02" text-anchor="middle" x="25.5" y="22.2">0</text>
<line font-size="0.2" stroke="black" stroke-width="0.02" x1="14" x2="26.5" y1="16.5" y2="16.5"/>
<line font-size="0.2" stroke="purple" stroke-width="0.02" x1="26.5" x2="26.5" y1="16.5" y2="22"/>
<circle cx="26.5" cy="16.5" fill="red" font-size="0.2" r="0.06" stroke-width="0.02"/>
<circle cx="26.5" cy="22" fill="blue" font-size="0.2" r="0.04" stroke-width="0.02"/>
<circle cx="14" cy="16.5" fill="red" font-size="0.2" r="0.04" stroke-width="0.02"/>
<text fill="black" font-size="0.2" stroke-width="0.02" text-anchor="middle" x="26.5" y="22.2">0</text>
<line font-size="0.2" stroke="black" stroke-width="0.02" x1="20" x2="27.5" y1="19.5" y2="19.5"/>
<line font-size="0.2" stroke="purple" stroke-width="0.02" x1="27.5" x2="27.5" y1="19.5" y2="22"/>
<circle cx="27.5" cy="19.5" fill="red" font-size="0.2" r="0.06" stroke-width="0.02"/>
<circle cx="27.5" cy="22" fill="blue" font-size="0.2" r="0.04" stroke-width="0.02"/>
<circle cx="20" cy="19.5" fill="red" font-size="0.2" r="0.04" stroke-width="0.02"/>
<text fill="black" font-size="0.2" stroke-width="0.02" text-anchor="middle" x="27.5" y="22.2">0</text>
<rect fill="transparent" font-size="0.2" height="1" stroke="green" stroke-width="0.02" width="4" x="28" y="23"/>
<text dominant-baseline="hanging" fill="black" font-size="0.4" stroke-width="0.04" text-anchor="start" x="28" y="23">1</text>
<text fill="black" font-size="0.2" stroke-width="0.02" text-anchor="end" x="32" y="24">2</text>
<text dominant-baseline="auto" fill="red" font-size="0.2" stroke-width="0.02" text-anchor="middle" x="30" y="23.4166666666667">or</text>
<text dominant-baseline="hanging" fill="darkblue" font-size="0.2" stroke-width="0.02" text-anchor="middle" x="30" y="23.5833333333333">W_2</text>
<line font-size="0.2" stroke="black" stroke-width="0.02" x1="4" x2="28.5" y1="11.5" y2="11.5"/>
<line font-size="0.2" stroke="purple" stroke-width="0.02" x1="28.5" x2="28.5" y1="11.5" y2="23"/>
<circle cx="28.5" cy="11.5" fill="red" font-size="0.2" r="0.06" stroke-width="0.02"/>
<circle cx="28.5" cy="23" fill="blue" font-size="0.2" r="0.04" stroke-width="0.02"/>
<circle cx="4" cy="11.5" fill="red" font-size="0.2" r="0.04" stroke-width="0.02"/>
<text fill="black" font-size="0.2" stroke-width="0.02" text-anchor="middle" x="28.5" y="23.2">0</text>
<line font-size="0.2" stroke="black" stroke-width="0.02" x1="10" x2="29.5" y1="14.5" y2="14.5"/>
<line font-size="0.2" stroke="purple" stroke-width="0.02" x1="29.5" x2="29.5" y1="14.5" y2="23"/>
<circle cx="29.5" cy="14.5" fill="red" font-size="0.2" r="0.06" stroke-width="0.02"/>
<circle cx="29.5" cy="23" fill="blue" font-size="0.2" r="0.04" stroke-width="0.02"/>
<circle cx="10" cy="14.5" fill="red" font-size="0.2" r="0.04" stroke-width="0.02"/>
<text fill="black" font-size="0.2" stroke-width="0.02" text-anchor="middle" x="29.5" y="23.2">0</text>
<line font-size="0.2" stroke="black" stroke-width="0.02" x1="16" x2="30.5" y1="17.5" y2="17.5"/>
<line font-size="0.2" stroke="purple" stroke-width="0.02" x1="30.5" x2="30.5" y1="17.5" y2="23"/>
<circle cx="30.5" cy="17.5" fill="red" font-size="0.2" r="0.06" stroke-width="0.02"/>
<circle cx="30.5" cy="23" fill="blue" font-size="0.2" r="0.04" stroke-width="0.02"/>
<circle cx="16" cy="17.5" fill="red" font-size="0.2" r="0.04" stroke-width="0.02"/>
<text fill="black" font-size="0.2" stroke-width="0.02" text-anchor="middle" x="30.5" y="23.2">1</text>
<line font-size="0.2" stroke="black" stroke-width="0.02" x1="22" x2="31.5" y1="20.5" y2="20.5"/>
<line font-size="0.2" stroke="purple" stroke-width="0.02" x1="31.5" x2="31.5" y1="20.5" y2="23"/>
<circle cx="31.5" cy="20.5" fill="red" font-size="0.2" r="0.06" stroke-width="0.02"/>
<circle cx="31.5" cy="23" fill="blue" font-size="0.2" r="0.04" stroke-width="0.02"/>
<circle cx="22" cy="20.5" fill="red" font-size="0.2" r="0.04" stroke-width="0.02"/>
<text fill="black" font-size="0.2" stroke-width="0.02" text-anchor="middle" x="31.5" y="23.2">0</text>
<rect fill="transparent" font-size="0.2" height="1" stroke="green" stroke-width="0.02" width="4" x="32" y="24"/>
<text dominant-baseline="hanging" fill="black" font-size="0.4" stroke-width="0.04" text-anchor="start" x="32" y="24">0</text>
<text fill="black" font-size="0.2" stroke-width="0.02" text-anchor="end" x="36" y="25">2</text>
<text dominant-baseline="auto" fill="red" font-size="0.2" stroke-width="0.02" text-anchor="middle" x="34" y="24.4166666666667">or</text>
<text dominant-baseline="hanging" fill="darkblue" font-size="0.2" stroke-width="0.02" text-anchor="middle" x="34" y="24.5833333333333">W_3</text>
<line font-size="0.2" stroke="black" stroke-width="0.02" x1="6" x2="32.5" y1="12.5" y2="12.5"/>
<line font-size="0.2" stroke="purple" stroke-width="0.02" x1="32.5" x2="32.5" y1="12.5" y2="24"/>
<circle cx="32.5" cy="12.5" fill="red" font-size="0.2" r="0.06" stroke-width="0.02"/>
<circle cx="32.5" cy="24" fill="blue" font-size="0.2" r="0.04" stroke-width="0.02"/>
<circle cx="6" cy="12.5" fill="red" font-size="0.2" r="0.04" stroke-width="0.02"/>
<text fill="black" font-size="0.2" stroke-width="0.02" text-anchor="middle" x="32.5" y="24.2">0</text>
<line font-size="0.2" stroke="black" stroke-width="0.02" x1="12" x2="33.5" y1="15.5" y2="15.5"/>
<line font-size="0.2" stroke="purple" stroke-width="0.02" x1="33.5" x2="33.5" y1="15.5" y2="24"/>
<circle cx="33.5" cy="15.5" fill="red" font-size="0.2" r="0.06" stroke-width="0.02"/>
<circle cx="33.5" cy="24" fill="blue" font-size="0.2" r="0.04" stroke-width="0.02"/>
<circle cx="12" cy="15.5" fill="red" font-size="0.2" r="0.04" stroke-width="0.02"/>
<text fill="black" font-size="0.2" stroke-width="0.02" text-anchor="middle" x="33.5" y="24.2">0</text>
<line font-size="0.2" stroke="black" stroke-width="0.02" x1="18" x2="34.5" y1="18.5" y2="18.5"/>
<line font-size="0.2" stroke="purple" stroke-width="0.02" x1="34.5" x2="34.5" y1="18.5" y2="24"/>
<circle cx="34.5" cy="18.5" fill="red" font-size="0.2" r="0.06" stroke-width="0.02"/>
<circle cx="34.5" cy="24" fill="blue" font-size="0.2" r="0.04" stroke-width="0.02"/>
<circle cx="18" cy="18.5" fill="red" font-size="0.2" r="0.04" stroke-width="0.02"/>
<text fill="black" font-size="0.2" stroke-width="0.02" text-anchor="middle" x="34.5" y="24.2">0</text>
<line font-size="0.2" stroke="black" stroke-width="0.02" x1="24" x2="35.5" y1="21.5" y2="21.5"/>
<line font-size="0.2" stroke="purple" stroke-width="0.02" x1="35.5" x2="35.5" y1="21.5" y2="24"/>
<circle cx="35.5" cy="21.5" fill="red" font-size="0.2" r="0.06" stroke-width="0.02"/>
<circle cx="35.5" cy="24" fill="blue" font-size="0.2" r="0.04" stroke-width="0.02"/>
<circle cx="24" cy="21.5" fill="red" font-size="0.2" r="0.04" stroke-width="0.02"/>
<text fill="black" font-size="0.2" stroke-width="0.02" text-anchor="middle" x="35.5" y="24.2">0</text>
<circle cx="12.5" cy="0.5" fill="transparent" font-size="0.2" r="0.5" stroke="blue" stroke-width="0.02"/>
<text dominant-baseline="hanging" fill="black" font-size="0.4" stroke-width="0.04" text-anchor="start" x="12" y="0">0</text>
<text dominant-baseline="auto" fill="red" font-size="0.2" stroke-width="0.02" text-anchor="middle" x="12.5" y="0.416666666666667">input</text>
<text dominant-baseline="hanging" fill="darkblue" font-size="0.2" stroke-width="0.02" text-anchor="middle" x="12.5" y="0.583333333333333">m_1</text>
<circle cx="13.5" cy="0.5" fill="transparent" font-size="0.2" r="0.5" stroke="blue" stroke-width="0.02"/>
<text dominant-baseline="hanging" fill="black" font-size="0.4" stroke-width="0.04" text-anchor="start" x="13" y="0">0</text>
<text dominant-baseline="auto" fill="red" font-size="0.2" stroke-width="0.02" text-anchor="middle" x="13.5" y="0.416666666666667">input</text>
<text dominant-baseline="hanging" fill="darkblue" font-size="0.2" stroke-width="0.02" text-anchor="middle" x="13.5" y="0.583333333333333">m_2</text>
<circle cx="14.5" cy="0.5" fill="transparent" font-size="0.2" r="0.5" stroke="blue" stroke-width="0.02"/>
<text dominant-baseline="hanging" fill="black" font-size="0.4" stroke-width="0.04" text-anchor="start" x="14" y="0">1</text>
<text dominant-baseline="auto" fill="red" font-size="0.2" stroke-width="0.02" text-anchor="middle" x="14.5" y="0.416666666666667">input</text>
<text dominant-baseline="hanging" fill="darkblue" font-size="0.2" stroke-width="0.02" text-anchor="middle" x="14.5" y="0.583333333333333">m_3</text>
<circle cx="15.5" cy="0.5" fill="transparent" font-size="0.2" r="0.5" stroke="blue" stroke-width="0.02"/>
<text dominant-baseline="hanging" fill="black" font-size="0.4" stroke-width="0.04" text-anchor="start" x="15" y="0">0</text>
<text dominant-baseline="auto" fill="red" font-size="0.2" stroke-width="0.02" text-anchor="middle" x="15.5" y="0.416666666666667">input</text>
<text dominant-baseline="hanging" fill="darkblue" font-size="0.2" stroke-width="0.02" text-anchor="middle" x="15.5" y="0.583333333333333">m_4</text>
<circle cx="36.5" cy="22.5" fill="transparent" font-size="0.2" r="0.5" stroke="red" stroke-width="0.02"/>
<text dominant-baseline="hanging" fill="black" font-size="0.4" stroke-width="0.04" text-anchor="end" x="37" y="22">0</text>
<text dominant-baseline="auto" fill="red" font-size="0.2" stroke-width="0.02" text-anchor="middle" x="36.5" y="22.4166666666667">output</text>
<text dominant-baseline="hanging" fill="darkblue" font-size="0.2" stroke-width="0.02" text-anchor="middle" x="36.5" y="22.5833333333333">o_1</text>
<line font-size="0.2" stroke="black" stroke-width="0.02" x1="28" x2="36" y1="22.5" y2="22.5"/>
<circle cx="36" cy="22.5" fill="blue" font-size="0.2" r="0.04" stroke-width="0.02"/>
<circle cx="28" cy="22.5" fill="red" font-size="0.2" r="0.04" stroke-width="0.02"/>
<circle cx="36.5" cy="23.5" fill="transparent" font-size="0.2" r="0.5" stroke="red" stroke-width="0.02"/>
<text dominant-baseline="hanging" fill="black" font-size="0.4" stroke-width="0.04" text-anchor="end" x="37" y="23">1</text>
<text dominant-baseline="auto" fill="red" font-size="0.2" stroke-width="0.02" text-anchor="middle" x="36.5" y="23.4166666666667">output</text>
<text dominant-baseline="hanging" fill="darkblue" font-size="0.2" stroke-width="0.02" text-anchor="middle" x="36.5" y="23.5833333333333">o_2</text>
<line font-size="0.2" stroke="black" stroke-width="0.02" x1="32" x2="36" y1="23.5" y2="23.5"/>
<circle cx="36" cy="23.5" fill="blue" font-size="0.2" r="0.04" stroke-width="0.02"/>
<circle cx="32" cy="23.5" fill="red" font-size="0.2" r="0.04" stroke-width="0.02"/>
<circle cx="36.5" cy="24.5" fill="transparent" font-size="0.2" r="0.5" stroke="red" stroke-width="0.02"/>
<text dominant-baseline="hanging" fill="black" font-size="0.4" stroke-width="0.04" text-anchor="end" x="37" y="24">0</text>
<text dominant-baseline="auto" fill="red" font-size="0.2" stroke-width="0.02" text-anchor="middle" x="36.5" y="24.4166666666667">output</text>
<text dominant-baseline="hanging" fill="darkblue" font-size="0.2" stroke-width="0.02" text-anchor="middle" x="36.5" y="24.5833333333333">o_3</text>
<line font-size="0.2" stroke="black" stroke-width="0.02" x1="36" x2="36" y1="24.5" y2="24.5"/>
<circle cx="36" cy="24.5" fill="blue" font-size="0.2" r="0.04" stroke-width="0.02"/>
<circle cx="36" cy="24.5" fill="red" font-size="0.2" r="0.04" stroke-width="0.02"/>
<circle cx="0.5" cy="0.5" fill="transparent" font-size="0.2" r="0.5" stroke="blue" stroke-width="0.02"/>
<text dominant-baseline="hanging" fill="black" font-size="0.4" stroke-width="0.04" text-anchor="start" x="0" y="0">0</text>
<text dominant-baseline="auto" fill="red" font-size="0.2" stroke-width="0.02" text-anchor="middle" x="0.5" y="0.416666666666667">input</text>
<text dominant-baseline="hanging" fill="darkblue" font-size="0.2" stroke-width="0.02" text-anchor="middle" x="0.5" y="0.583333333333333">w_1_1</text>
<circle cx="1.5" cy="0.5" fill="transparent" font-size="0.2" r="0.5" stroke="blue" stroke-width="0.02"/>
<text dominant-baseline="hanging" fill="black" font-size="0.4" stroke-width="0.04" text-anchor="start" x="1" y="0">0</text>
<text dominant-baseline="auto" fill="red" font-size="0.2" stroke-width="0.02" text-anchor="middle" x="1.5" y="0.416666666666667">input</text>
<text dominant-baseline="hanging" fill="darkblue" font-size="0.2" stroke-width="0.02" text-anchor="middle" x="1.5" y="0.583333333333333">w_1_2</text>
<circle cx="2.5" cy="0.5" fill="transparent" font-size="0.2" r="0.5" stroke="blue" stroke-width="0.02"/>
<text dominant-baseline="hanging" fill="black" font-size="0.4" stroke-width="0.04" text-anchor="start" x="2" y="0">0</text>
<text dominant-baseline="auto" fill="red" font-size="0.2" stroke-width="0.02" text-anchor="middle" x="2.5" y="0.416666666666667">input</text>
<text dominant-baseline="hanging" fill="darkblue" font-size="0.2" stroke-width="0.02" text-anchor="middle" x="2.5" y="0.583333333333333">w_1_3</text>
<circle cx="3.5" cy="0.5" fill="transparent" font-size="0.2" r="0.5" stroke="blue" stroke-width="0.02"/>
<text dominant-baseline="hanging" fill="black" font-size="0.4" stroke-width="0.04" text-anchor="start" x="3" y="0">1</text>
<text dominant-baseline="auto" fill="red" font-size="0.2" stroke-width="0.02" text-anchor="middle" x="3.5" y="0.416666666666667">input</text>
<text dominant-baseline="hanging" fill="darkblue" font-size="0.2" stroke-width="0.02" text-anchor="middle" x="3.5" y="0.583333333333333">w_2_1</text>
<circle cx="4.5" cy="0.5" fill="transparent" font-size="0.2" r="0.5" stroke="blue" stroke-width="0.02"/>
<text dominant-baseline="hanging" fill="black" font-size="0.4" stroke-width="0.04" text-anchor="start" x="4" y="0">0</text>
<text dominant-baseline="auto" fill="red" font-size="0.2" stroke-width="0.02" text-anchor="middle" x="4.5" y="0.416666666666667">input</text>
<text dominant-baseline="hanging" fill="darkblue" font-size="0.2" stroke-width="0.02" text-anchor="middle" x="4.5" y="0.583333333333333">w_2_2</text>
<circle cx="5.5" cy="0.5" fill="transparent" font-size="0.2" r="0.5" stroke="blue" stroke-width="0.02"/>
<text dominant-baseline="hanging" fill="black" font-size="0.4" stroke-width="0.04" text-anchor="start" x="5" y="0">0</text>
<text dominant-baseline="auto" fill="red" font-size="0.2" stroke-width="0.02" text-anchor="middle" x="5.5" y="0.416666666666667">input</text>
<text dominant-baseline="hanging" fill="darkblue" font-size="0.2" stroke-width="0.02" text-anchor="middle" x="5.5" y="0.583333333333333">w_2_3</text>
<circle cx="6.5" cy="0.5" fill="transparent" font-size="0.2" r="0.5" stroke="blue" stroke-width="0.02"/>
<text dominant-baseline="hanging" fill="black" font-size="0.4" stroke-width="0.04" text-anchor="start" x="6" y="0">0</text>
<text dominant-baseline="auto" fill="red" font-size="0.2" stroke-width="0.02" text-anchor="middle" x="6.5" y="0.416666666666667">input</text>
<text dominant-baseline="hanging" fill="darkblue" font-size="0.2" stroke-width="0.02" text-anchor="middle" x="6.5" y="0.583333333333333">w_3_1</text>
<circle cx="7.5" cy="0.5" fill="transparent" font-size="0.2" r="0.5" stroke="blue" stroke-width="0.02"/>
<text dominant-baseline="hanging" fill="black" font-size="0.4" stroke-width="0.04" text-anchor="start" x="7" y="0">1</text>
<text dominant-baseline="auto" fill="red" font-size="0.2" stroke-width="0.02" text-anchor="middle" x="7.5" y="0.416666666666667">input</text>
<text dominant-baseline="hanging" fill="darkblue" font-size="0.2" stroke-width="0.02" text-anchor="middle" x="7.5" y="0.583333333333333">w_3_2</text>
<circle cx="8.5" cy="0.5" fill="transparent" font-size="0.2" r="0.5" stroke="blue" stroke-width="0.02"/>
<text dominant-baseline="hanging" fill="black" font-size="0.4" stroke-width="0.04" text-anchor="start" x="8" y="0">0</text>
<text dominant-baseline="auto" fill="red" font-size="0.2" stroke-width="0.02" text-anchor="middle" x="8.5" y="0.416666666666667">input</text>
<text dominant-baseline="hanging" fill="darkblue" font-size="0.2" stroke-width="0.02" text-anchor="middle" x="8.5" y="0.583333333333333">w_3_3</text>
<circle cx="9.5" cy="0.5" fill="transparent" font-size="0.2" r="0.5" stroke="blue" stroke-width="0.02"/>
<text dominant-baseline="hanging" fill="black" font-size="0.4" stroke-width="0.04" text-anchor="start" x="9" y="0">0</text>
<text dominant-baseline="auto" fill="red" font-size="0.2" stroke-width="0.02" text-anchor="middle" x="9.5" y="0.416666666666667">input</text>
<text dominant-baseline="hanging" fill="darkblue" font-size="0.2" stroke-width="0.02" text-anchor="middle" x="9.5" y="0.583333333333333">w_4_1</text>
<circle cx="10.5" cy="0.5" fill="transparent" font-size="0.2" r="0.5" stroke="blue" stroke-width="0.02"/>
<text dominant-baseline="hanging" fill="black" font-size="0.4" stroke-width="0.04" text-anchor="start" x="10" y="0">0</text>
<text dominant-baseline="auto" fill="red" font-size="0.2" stroke-width="0.02" text-anchor="middle" x="10.5" y="0.416666666666667">input</text>
<text dominant-baseline="hanging" fill="darkblue" font-size="0.2" stroke-width="0.02" text-anchor="middle" x="10.5" y="0.583333333333333">w_4_2</text>
<circle cx="11.5" cy="0.5" fill="transparent" font-size="0.2" r="0.5" stroke="blue" stroke-width="0.02"/>
<text dominant-baseline="hanging" fill="black" font-size="0.4" stroke-width="0.04" text-anchor="start" x="11" y="0">1</text>
<text dominant-baseline="auto" fill="red" font-size="0.2" stroke-width="0.02" text-anchor="middle" x="11.5" y="0.416666666666667">input</text>
<text dominant-baseline="hanging" fill="darkblue" font-size="0.2" stroke-width="0.02" text-anchor="middle" x="11.5" y="0.583333333333333">w_4_3</text>
</svg>
