<?xml version="1.0" encoding="UTF-8" standalone="yes"?>
<!DOCTYPE svg PUBLIC "-//W3C//DTD SVG 1.0//EN" "http://www.w3.org/TR/2001/REC-SVG-20010904/DTD/svg10.dtd">
<svg height="100%" viewBox="0 0 21 15" width="100%" xmlns="http://www.w3.org/2000/svg" xmlns:svg="http://www.w3.org/2000/svg" xmlns:xlink="http://www.w3.org/1999/xlink">
<text fill="darkGreen" font-size="0.4" stroke-width="0.04" text-anchor="end" x="20" y="0.5">3 Bit Compare Less Than
</text>
<text fill="darkGreen" font-size="0.4" stroke-width="0.04" text-anchor="end" x="20" y="1.5">4 steps</text>
<circle cx="0.5" cy="0.5" fill="transparent" font-size="0.2" r="0.5" stroke="blue" stroke-width="0.02"/>
<text dominant-baseline="hanging" fill="black" font-size="0.4" stroke-width="0.04" text-anchor="start" x="0" y="0">1</text>
<text dominant-baseline="auto" fill="red" font-size="0.2" stroke-width="0.02" text-anchor="middle" x="0.5" y="0.416666666666667">input</text>
<text dominant-baseline="hanging" fill="darkblue" font-size="0.2" stroke-width="0.02" text-anchor="middle" x="0.5" y="0.583333333333333">a_1</text>
<circle cx="0.5" cy="1.5" fill="transparent" font-size="0.2" r="0.5" stroke="blue" stroke-width="0.02"/>
<text dominant-baseline="hanging" fill="black" font-size="0.4" stroke-width="0.04" text-anchor="start" x="0" y="1">0</text>
<text dominant-baseline="auto" fill="red" font-size="0.2" stroke-width="0.02" text-anchor="middle" x="0.5" y="1.41666666666667">input</text>
<text dominant-baseline="hanging" fill="darkblue" font-size="0.2" stroke-width="0.02" text-anchor="middle" x="0.5" y="1.58333333333333">a_2</text>
<circle cx="0.5" cy="2.5" fill="transparent" font-size="0.2" r="0.5" stroke="blue" stroke-width="0.02"/>
<text dominant-baseline="hanging" fill="black" font-size="0.4" stroke-width="0.04" text-anchor="start" x="0" y="2">0</text>
<text dominant-baseline="auto" fill="red" font-size="0.2" stroke-width="0.02" text-anchor="middle" x="0.5" y="2.41666666666667">input</text>
<text dominant-baseline="hanging" fill="darkblue" font-size="0.2" stroke-width="0.02" text-anchor="middle" x="0.5" y="2.58333333333333">a_3</text>
<circle cx="0.5" cy="3.5" fill="transparent" font-size="0.2" r="0.5" stroke="blue" stroke-width="0.02"/>
<text dominant-baseline="hanging" fill="black" font-size="0.4" stroke-width="0.04" text-anchor="start" x="0" y="3">0</text>
<text dominant-baseline="auto" fill="red" font-size="0.2" stroke-width="0.02" text-anchor="middle" x="0.5" y="3.41666666666667">input</text>
<text dominant-baseline="hanging" fill="darkblue" font-size="0.2" stroke-width="0.02" text-anchor="middle" x="0.5" y="3.58333333333333">b_1</text>
<circle cx="0.5" cy="4.5" fill="transparent" font-size="0.2" r="0.5" stroke="blue" stroke-width="0.02"/>
<text dominant-baseline="hanging" fill="black" font-size="0.4" stroke-width="0.04" text-anchor="start" x="0" y="4">1</text>
<text dominant-baseline="auto" fill="red" font-size="0.2" stroke-width="0.02" text-anchor="middle" x="0.5" y="4.41666666666667">input</text>
<text dominant-baseline="hanging" fill="darkblue" font-size="0.2" stroke-width="0.02" text-anchor="middle" x="0.5" y="4.58333333333333">b_2</text>
<circle cx="0.5" cy="5.5" fill="transparent" font-size="0.2" r="0.5" stroke="blue" stroke-width="0.02"/>
<text dominant-baseline="hanging" fill="black" font-size="0.4" stroke-width="0.04" text-anchor="start" x="0" y="5">0</text>
<text dominant-baseline="auto" fill="red" font-size="0.2" stroke-width="0.02" text-anchor="middle" x="0.5" y="5.41666666666667">input</text>
<text dominant-baseline="hanging" fill="darkblue" font-size="0.2" stroke-width="0.02" text-anchor="middle" x="0.5" y="5.58333333333333">b_3</text>
<rect fill="transparent" font-size="0.2" height="1" stroke="green" stroke-width="0.02" width="3" x="16" y="13"/>
<text dominant-baseline="hanging" fill="black" font-size="0.4" stroke-width="0.04" text-anchor="start" x="16" y="13">1</text>
<text fill="black" font-size="0.2" stroke-width="0.02" text-anchor="end" x="19" y="14">3</text>
<text dominant-baseline="auto" fill="red" font-size="0.2" stroke-width="0.02" text-anchor="middle" x="17.5" y="13.4166666666667">or</text>
<text dominant-baseline="hanging" fill="darkblue" font-size="0.2" stroke-width="0.02" text-anchor="middle" x="17.5" y="13.5833333333333">o</text>
<line font-size="0.2" stroke="black" stroke-width="0.02" x1="14" x2="16.5" y1="11.5" y2="11.5"/>
<line font-size="0.2" stroke="purple" stroke-width="0.02" x1="16.5" x2="16.5" y1="11.5" y2="13"/>
<circle cx="16.5" cy="11.5" fill="red" font-size="0.2" r="0.06" stroke-width="0.02"/>
<circle cx="16.5" cy="13" fill="blue" font-size="0.2" r="0.04" stroke-width="0.02"/>
<circle cx="14" cy="11.5" fill="red" font-size="0.2" r="0.04" stroke-width="0.02"/>
<text dominant-baseline="hanging" fill="black" font-size="0.2" stroke-width="0.02" text-anchor="middle" x="16.5" y="13.1">0</text>
<line font-size="0.2" stroke="black" stroke-width="0.02" x1="16" x2="17.5" y1="12.5" y2="12.5"/>
<line font-size="0.2" stroke="purple" stroke-width="0.02" x1="17.5" x2="17.5" y1="12.5" y2="13"/>
<circle cx="17.5" cy="12.5" fill="red" font-size="0.2" r="0.06" stroke-width="0.02"/>
<circle cx="17.5" cy="13" fill="blue" font-size="0.2" r="0.04" stroke-width="0.02"/>
<circle cx="16" cy="12.5" fill="red" font-size="0.2" r="0.04" stroke-width="0.02"/>
<text dominant-baseline="hanging" fill="black" font-size="0.2" stroke-width="0.02" text-anchor="middle" x="17.5" y="13.1">1</text>
<line font-size="0.2" stroke="black" stroke-width="0.02" x1="11" x2="18.5" y1="10.5" y2="10.5"/>
<line font-size="0.2" stroke="purple" stroke-width="0.02" x1="18.5" x2="18.5" y1="10.5" y2="13"/>
<circle cx="18.5" cy="10.5" fill="red" font-size="0.2" r="0.06" stroke-width="0.02"/>
<circle cx="18.5" cy="13" fill="blue" font-size="0.2" r="0.04" stroke-width="0.02"/>
<circle cx="11" cy="10.5" fill="red" font-size="0.2" r="0.04" stroke-width="0.02"/>
<text dominant-baseline="hanging" fill="black" font-size="0.2" stroke-width="0.02" text-anchor="middle" x="18.5" y="13.1">0</text>
<rect fill="transparent" font-size="0.2" height="1" stroke="green" stroke-width="0.02" width="3" x="11" y="11"/>
<text dominant-baseline="hanging" fill="black" font-size="0.4" stroke-width="0.04" text-anchor="start" x="11" y="11">0</text>
<text fill="black" font-size="0.2" stroke-width="0.02" text-anchor="end" x="14" y="12">2</text>
<text dominant-baseline="auto" fill="red" font-size="0.2" stroke-width="0.02" text-anchor="middle" x="12.5" y="11.4166666666667">and</text>
<text dominant-baseline="hanging" fill="darkblue" font-size="0.2" stroke-width="0.02" text-anchor="middle" x="12.5" y="11.5833333333333">o.c_2</text>
<line font-size="0.2" stroke="black" stroke-width="0.02" x1="3" x2="11.5" y1="6.5" y2="6.5"/>
<line font-size="0.2" stroke="purple" stroke-width="0.02" x1="11.5" x2="11.5" y1="6.5" y2="11"/>
<circle cx="11.5" cy="6.5" fill="red" font-size="0.2" r="0.06" stroke-width="0.02"/>
<circle cx="11.5" cy="11" fill="blue" font-size="0.2" r="0.04" stroke-width="0.02"/>
<circle cx="3" cy="6.5" fill="red" font-size="0.2" r="0.04" stroke-width="0.02"/>
<text dominant-baseline="hanging" fill="black" font-size="0.2" stroke-width="0.02" text-anchor="middle" x="11.5" y="11.1">0</text>
<line font-size="0.2" stroke="black" stroke-width="0.02" x1="5" x2="12.5" y1="7.5" y2="7.5"/>
<line font-size="0.2" stroke="purple" stroke-width="0.02" x1="12.5" x2="12.5" y1="7.5" y2="11"/>
<circle cx="12.5" cy="7.5" fill="red" font-size="0.2" r="0.06" stroke-width="0.02"/>
<circle cx="12.5" cy="11" fill="blue" font-size="0.2" r="0.04" stroke-width="0.02"/>
<circle cx="5" cy="7.5" fill="red" font-size="0.2" r="0.04" stroke-width="0.02"/>
<text dominant-baseline="hanging" fill="black" font-size="0.2" stroke-width="0.02" text-anchor="middle" x="12.5" y="11.1">1</text>
<line font-size="0.2" stroke="black" stroke-width="0.02" x1="7" x2="13.5" y1="8.5" y2="8.5"/>
<line font-size="0.2" stroke="purple" stroke-width="0.02" x1="13.5" x2="13.5" y1="8.5" y2="11"/>
<circle cx="13.5" cy="8.5" fill="red" font-size="0.2" r="0.06" stroke-width="0.02"/>
<circle cx="13.5" cy="11" fill="blue" font-size="0.2" r="0.04" stroke-width="0.02"/>
<circle cx="7" cy="8.5" fill="red" font-size="0.2" r="0.04" stroke-width="0.02"/>
<text dominant-baseline="hanging" fill="black" font-size="0.2" stroke-width="0.02" text-anchor="middle" x="13.5" y="11.1">0</text>
<rect fill="transparent" font-size="0.2" height="1" stroke="green" stroke-width="0.02" width="2" x="14" y="12"/>
<text dominant-baseline="hanging" fill="black" font-size="0.4" stroke-width="0.04" text-anchor="start" x="14" y="12">1</text>
<text fill="black" font-size="0.2" stroke-width="0.02" text-anchor="end" x="16" y="13">2</text>
<text dominant-baseline="auto" fill="red" font-size="0.2" stroke-width="0.02" text-anchor="middle" x="15" y="12.4166666666667">and</text>
<text dominant-baseline="hanging" fill="darkblue" font-size="0.2" stroke-width="0.02" text-anchor="middle" x="15" y="12.5833333333333">o.c_3</text>
<line font-size="0.2" stroke="black" stroke-width="0.02" x1="5" x2="14.5" y1="7.5" y2="7.5"/>
<line font-size="0.2" stroke="purple" stroke-width="0.02" x1="14.5" x2="14.5" y1="7.5" y2="12"/>
<circle cx="14.5" cy="7.5" fill="red" font-size="0.2" r="0.06" stroke-width="0.02"/>
<circle cx="14.5" cy="12" fill="blue" font-size="0.2" r="0.04" stroke-width="0.02"/>
<circle cx="5" cy="7.5" fill="red" font-size="0.2" r="0.04" stroke-width="0.02"/>
<text dominant-baseline="hanging" fill="black" font-size="0.2" stroke-width="0.02" text-anchor="middle" x="14.5" y="12.1">1</text>
<line font-size="0.2" stroke="black" stroke-width="0.02" x1="9" x2="15.5" y1="9.5" y2="9.5"/>
<line font-size="0.2" stroke="purple" stroke-width="0.02" x1="15.5" x2="15.5" y1="9.5" y2="12"/>
<circle cx="15.5" cy="9.5" fill="red" font-size="0.2" r="0.06" stroke-width="0.02"/>
<circle cx="15.5" cy="12" fill="blue" font-size="0.2" r="0.04" stroke-width="0.02"/>
<circle cx="9" cy="9.5" fill="red" font-size="0.2" r="0.04" stroke-width="0.02"/>
<text dominant-baseline="hanging" fill="black" font-size="0.2" stroke-width="0.02" text-anchor="middle" x="15.5" y="12.1">1</text>
<rect fill="transparent" font-size="0.2" height="1" stroke="green" stroke-width="0.02" width="2" x="1" y="6"/>
<text dominant-baseline="hanging" fill="black" font-size="0.4" stroke-width="0.04" text-anchor="start" x="1" y="6">0</text>
<text fill="black" font-size="0.2" stroke-width="0.02" text-anchor="end" x="3" y="7">1</text>
<text dominant-baseline="auto" fill="red" font-size="0.2" stroke-width="0.02" text-anchor="middle" x="2" y="6.41666666666667">nxor</text>
<text dominant-baseline="hanging" fill="darkblue" font-size="0.2" stroke-width="0.02" text-anchor="middle" x="2" y="6.58333333333333">o.e_2</text>
<line font-size="0.2" stroke="black" stroke-width="0.02" x1="1" x2="1.5" y1="1.5" y2="1.5"/>
<line font-size="0.2" stroke="purple" stroke-width="0.02" x1="1.5" x2="1.5" y1="1.5" y2="6"/>
<circle cx="1.5" cy="1.5" fill="red" font-size="0.2" r="0.06" stroke-width="0.02"/>
<circle cx="1.5" cy="6" fill="blue" font-size="0.2" r="0.04" stroke-width="0.02"/>
<circle cx="1" cy="1.5" fill="red" font-size="0.2" r="0.04" stroke-width="0.02"/>
<text dominant-baseline="hanging" fill="black" font-size="0.2" stroke-width="0.02" text-anchor="middle" x="1.5" y="6.1">0</text>
<line font-size="0.2" stroke="black" stroke-width="0.02" x1="1" x2="2.5" y1="4.5" y2="4.5"/>
<line font-size="0.2" stroke="purple" stroke-width="0.02" x1="2.5" x2="2.5" y1="4.5" y2="6"/>
<circle cx="2.5" cy="4.5" fill="red" font-size="0.2" r="0.06" stroke-width="0.02"/>
<circle cx="2.5" cy="6" fill="blue" font-size="0.2" r="0.04" stroke-width="0.02"/>
<circle cx="1" cy="4.5" fill="red" font-size="0.2" r="0.04" stroke-width="0.02"/>
<text dominant-baseline="hanging" fill="black" font-size="0.2" stroke-width="0.02" text-anchor="middle" x="2.5" y="6.1">1</text>
<rect fill="transparent" font-size="0.2" height="1" stroke="green" stroke-width="0.02" width="2" x="3" y="7"/>
<text dominant-baseline="hanging" fill="black" font-size="0.4" stroke-width="0.04" text-anchor="start" x="3" y="7">1</text>
<text fill="black" font-size="0.2" stroke-width="0.02" text-anchor="end" x="5" y="8">1</text>
<text dominant-baseline="auto" fill="red" font-size="0.2" stroke-width="0.02" text-anchor="middle" x="4" y="7.41666666666667">nxor</text>
<text dominant-baseline="hanging" fill="darkblue" font-size="0.2" stroke-width="0.02" text-anchor="middle" x="4" y="7.58333333333333">o.e_3</text>
<line font-size="0.2" stroke="black" stroke-width="0.02" x1="1" x2="3.5" y1="2.5" y2="2.5"/>
<line font-size="0.2" stroke="purple" stroke-width="0.02" x1="3.5" x2="3.5" y1="2.5" y2="7"/>
<circle cx="3.5" cy="2.5" fill="red" font-size="0.2" r="0.06" stroke-width="0.02"/>
<circle cx="3.5" cy="7" fill="blue" font-size="0.2" r="0.04" stroke-width="0.02"/>
<circle cx="1" cy="2.5" fill="red" font-size="0.2" r="0.04" stroke-width="0.02"/>
<text dominant-baseline="hanging" fill="black" font-size="0.2" stroke-width="0.02" text-anchor="middle" x="3.5" y="7.1">0</text>
<line font-size="0.2" stroke="black" stroke-width="0.02" x1="1" x2="4.5" y1="5.5" y2="5.5"/>
<line font-size="0.2" stroke="purple" stroke-width="0.02" x1="4.5" x2="4.5" y1="5.5" y2="7"/>
<circle cx="4.5" cy="5.5" fill="red" font-size="0.2" r="0.06" stroke-width="0.02"/>
<circle cx="4.5" cy="7" fill="blue" font-size="0.2" r="0.04" stroke-width="0.02"/>
<circle cx="1" cy="5.5" fill="red" font-size="0.2" r="0.04" stroke-width="0.02"/>
<text dominant-baseline="hanging" fill="black" font-size="0.2" stroke-width="0.02" text-anchor="middle" x="4.5" y="7.1">0</text>
<rect fill="transparent" font-size="0.2" height="1" stroke="green" stroke-width="0.02" width="2" x="5" y="8"/>
<text dominant-baseline="hanging" fill="black" font-size="0.4" stroke-width="0.04" text-anchor="start" x="5" y="8">0</text>
<text fill="black" font-size="0.2" stroke-width="0.02" text-anchor="end" x="7" y="9">1</text>
<text dominant-baseline="auto" fill="red" font-size="0.2" stroke-width="0.02" text-anchor="middle" x="6" y="8.41666666666667">lt</text>
<text dominant-baseline="hanging" fill="darkblue" font-size="0.2" stroke-width="0.02" text-anchor="middle" x="6" y="8.58333333333333">o.l_1</text>
<line font-size="0.2" stroke="black" stroke-width="0.02" x1="1" x2="5.5" y1="0.5" y2="0.5"/>
<line font-size="0.2" stroke="purple" stroke-width="0.02" x1="5.5" x2="5.5" y1="0.5" y2="8"/>
<circle cx="5.5" cy="0.5" fill="red" font-size="0.2" r="0.06" stroke-width="0.02"/>
<circle cx="5.5" cy="8" fill="blue" font-size="0.2" r="0.04" stroke-width="0.02"/>
<circle cx="1" cy="0.5" fill="red" font-size="0.2" r="0.04" stroke-width="0.02"/>
<text dominant-baseline="hanging" fill="black" font-size="0.2" stroke-width="0.02" text-anchor="middle" x="5.5" y="8.1">1</text>
<line font-size="0.2" stroke="black" stroke-width="0.02" x1="1" x2="6.5" y1="3.5" y2="3.5"/>
<line font-size="0.2" stroke="purple" stroke-width="0.02" x1="6.5" x2="6.5" y1="3.5" y2="8"/>
<circle cx="6.5" cy="3.5" fill="red" font-size="0.2" r="0.06" stroke-width="0.02"/>
<circle cx="6.5" cy="8" fill="blue" font-size="0.2" r="0.04" stroke-width="0.02"/>
<circle cx="1" cy="3.5" fill="red" font-size="0.2" r="0.04" stroke-width="0.02"/>
<text dominant-baseline="hanging" fill="black" font-size="0.2" stroke-width="0.02" text-anchor="middle" x="6.5" y="8.1">0</text>
<rect fill="transparent" font-size="0.2" height="1" stroke="green" stroke-width="0.02" width="2" x="7" y="9"/>
<text dominant-baseline="hanging" fill="black" font-size="0.4" stroke-width="0.04" text-anchor="start" x="7" y="9">1</text>
<text fill="black" font-size="0.2" stroke-width="0.02" text-anchor="end" x="9" y="10">1</text>
<text dominant-baseline="auto" fill="red" font-size="0.2" stroke-width="0.02" text-anchor="middle" x="8" y="9.41666666666667">lt</text>
<text dominant-baseline="hanging" fill="darkblue" font-size="0.2" stroke-width="0.02" text-anchor="middle" x="8" y="9.58333333333333">o.l_2</text>
<line font-size="0.2" stroke="black" stroke-width="0.02" x1="1" x2="7.5" y1="1.5" y2="1.5"/>
<line font-size="0.2" stroke="purple" stroke-width="0.02" x1="7.5" x2="7.5" y1="1.5" y2="9"/>
<circle cx="7.5" cy="1.5" fill="red" font-size="0.2" r="0.06" stroke-width="0.02"/>
<circle cx="7.5" cy="9" fill="blue" font-size="0.2" r="0.04" stroke-width="0.02"/>
<circle cx="1" cy="1.5" fill="red" font-size="0.2" r="0.04" stroke-width="0.02"/>
<text dominant-baseline="hanging" fill="black" font-size="0.2" stroke-width="0.02" text-anchor="middle" x="7.5" y="9.1">0</text>
<line font-size="0.2" stroke="black" stroke-width="0.02" x1="1" x2="8.5" y1="4.5" y2="4.5"/>
<line font-size="0.2" stroke="purple" stroke-width="0.02" x1="8.5" x2="8.5" y1="4.5" y2="9"/>
<circle cx="8.5" cy="4.5" fill="red" font-size="0.2" r="0.06" stroke-width="0.02"/>
<circle cx="8.5" cy="9" fill="blue" font-size="0.2" r="0.04" stroke-width="0.02"/>
<circle cx="1" cy="4.5" fill="red" font-size="0.2" r="0.04" stroke-width="0.02"/>
<text dominant-baseline="hanging" fill="black" font-size="0.2" stroke-width="0.02" text-anchor="middle" x="8.5" y="9.1">1</text>
<rect fill="transparent" font-size="0.2" height="1" stroke="green" stroke-width="0.02" width="2" x="9" y="10"/>
<text dominant-baseline="hanging" fill="black" font-size="0.4" stroke-width="0.04" text-anchor="start" x="9" y="10">0</text>
<text fill="black" font-size="0.2" stroke-width="0.02" text-anchor="end" x="11" y="11">1</text>
<text dominant-baseline="auto" fill="red" font-size="0.2" stroke-width="0.02" text-anchor="middle" x="10" y="10.4166666666667">lt</text>
<text dominant-baseline="hanging" fill="darkblue" font-size="0.2" stroke-width="0.02" text-anchor="middle" x="10" y="10.5833333333333">o.l_3</text>
<line font-size="0.2" stroke="black" stroke-width="0.02" x1="1" x2="9.5" y1="2.5" y2="2.5"/>
<line font-size="0.2" stroke="purple" stroke-width="0.02" x1="9.5" x2="9.5" y1="2.5" y2="10"/>
<circle cx="9.5" cy="2.5" fill="red" font-size="0.2" r="0.06" stroke-width="0.02"/>
<circle cx="9.5" cy="10" fill="blue" font-size="0.2" r="0.04" stroke-width="0.02"/>
<circle cx="1" cy="2.5" fill="red" font-size="0.2" r="0.04" stroke-width="0.02"/>
<text dominant-baseline="hanging" fill="black" font-size="0.2" stroke-width="0.02" text-anchor="middle" x="9.5" y="10.1">0</text>
<line font-size="0.2" stroke="black" stroke-width="0.02" x1="1" x2="10.5" y1="5.5" y2="5.5"/>
<line font-size="0.2" stroke="purple" stroke-width="0.02" x1="10.5" x2="10.5" y1="5.5" y2="10"/>
<circle cx="10.5" cy="5.5" fill="red" font-size="0.2" r="0.06" stroke-width="0.02"/>
<circle cx="10.5" cy="10" fill="blue" font-size="0.2" r="0.04" stroke-width="0.02"/>
<circle cx="1" cy="5.5" fill="red" font-size="0.2" r="0.04" stroke-width="0.02"/>
<text dominant-baseline="hanging" fill="black" font-size="0.2" stroke-width="0.02" text-anchor="middle" x="10.5" y="10.1">0</text>
<circle cx="19.5" cy="13.5" fill="transparent" font-size="0.2" r="0.5" stroke="red" stroke-width="0.02"/>
<text dominant-baseline="hanging" fill="black" font-size="0.4" stroke-width="0.04" text-anchor="end" x="20" y="13">1</text>
<text dominant-baseline="auto" fill="red" font-size="0.2" stroke-width="0.02" text-anchor="middle" x="19.5" y="13.4166666666667">output</text>
<text dominant-baseline="hanging" fill="darkblue" font-size="0.2" stroke-width="0.02" text-anchor="middle" x="19.5" y="13.5833333333333">out</text>
<line font-size="0.2" stroke="black" stroke-width="0.02" x1="19" x2="19" y1="13.5" y2="13.5"/>
<circle cx="19" cy="13.5" fill="blue" font-size="0.2" r="0.04" stroke-width="0.02"/>
<circle cx="19" cy="13.5" fill="red" font-size="0.2" r="0.04" stroke-width="0.02"/>
</svg>
