<?xml version="1.0" encoding="UTF-8" standalone="yes"?>
<!DOCTYPE svg PUBLIC "-//W3C//DTD SVG 1.0//EN" "http://www.w3.org/TR/2001/REC-SVG-20010904/DTD/svg10.dtd">
<svg height="100%" viewBox="0 0 17.6 17.6" width="100%" xmlns="http://www.w3.org/2000/svg" xmlns:svg="http://www.w3.org/2000/svg" xmlns:xlink="http://www.w3.org/1999/xlink">
<circle cx="0.5" cy="0.5" fill="white" font-size="0.2" r="0.5" stroke="blue" stroke-width="0.02"/>
<text alignment-baseline="middle" fill="red" font-size="0.2" stroke-width="0.02" text-anchor="middle" x="0.5" y="0.4">input</text>
<text alignment-baseline="middle" fill="darkblue" font-size="0.2" stroke-width="0.02" text-anchor="middle" x="0.5" y="0.8">a1</text>
<circle cx="0.5" cy="1.7" fill="white" font-size="0.2" r="0.5" stroke="blue" stroke-width="0.02"/>
<text alignment-baseline="middle" fill="red" font-size="0.2" stroke-width="0.02" text-anchor="middle" x="0.5" y="1.6">input</text>
<text alignment-baseline="middle" fill="darkblue" font-size="0.2" stroke-width="0.02" text-anchor="middle" x="0.5" y="2">a2</text>
<circle cx="0.5" cy="2.9" fill="white" font-size="0.2" r="0.5" stroke="blue" stroke-width="0.02"/>
<text alignment-baseline="middle" fill="red" font-size="0.2" stroke-width="0.02" text-anchor="middle" x="0.5" y="2.8">input</text>
<text alignment-baseline="middle" fill="darkblue" font-size="0.2" stroke-width="0.02" text-anchor="middle" x="0.5" y="3.2">a3</text>
<circle cx="0.5" cy="4.1" fill="white" font-size="0.2" r="0.5" stroke="blue" stroke-width="0.02"/>
<text alignment-baseline="middle" fill="red" font-size="0.2" stroke-width="0.02" text-anchor="middle" x="0.5" y="4">input</text>
<text alignment-baseline="middle" fill="darkblue" font-size="0.2" stroke-width="0.02" text-anchor="middle" x="0.5" y="4.4">a4</text>
<rect fill="white" font-size="0.2" height="1" stroke="green" stroke-width="0.02" width="4" x="1" y="9.6"/>
<text alignment-baseline="middle" fill="red" font-size="0.2" stroke-width="0.02" text-anchor="middle" x="3" y="10">and</text>
<text alignment-baseline="middle" fill="darkblue" font-size="0.2" stroke-width="0.02" text-anchor="middle" x="3" y="10.4">and</text>
<line font-size="0.2" stroke="darkBlue" stroke-width="0.02" x1="5" x2="1.5" y1="11.3" y2="11.3"/>
<line font-size="0.2" stroke="darkRed" stroke-width="0.02" x1="1.5" x2="1.5" y1="11.3" y2="10.6"/>
<circle cx="1.5" cy="11.3" fill="black" font-size="0.2" r="0.04" stroke-width="0.02"/>
<line font-size="0.2" stroke="darkBlue" stroke-width="0.02" x1="7" x2="2.5" y1="12.5" y2="12.5"/>
<line font-size="0.2" stroke="darkRed" stroke-width="0.02" x1="2.5" x2="2.5" y1="12.5" y2="10.6"/>
<circle cx="2.5" cy="12.5" fill="black" font-size="0.2" r="0.04" stroke-width="0.02"/>
<line font-size="0.2" stroke="darkBlue" stroke-width="0.02" x1="9" x2="3.5" y1="13.7" y2="13.7"/>
<line font-size="0.2" stroke="darkRed" stroke-width="0.02" x1="3.5" x2="3.5" y1="13.7" y2="10.6"/>
<circle cx="3.5" cy="13.7" fill="black" font-size="0.2" r="0.04" stroke-width="0.02"/>
<line font-size="0.2" stroke="darkBlue" stroke-width="0.02" x1="11" x2="4.5" y1="14.9" y2="14.9"/>
<line font-size="0.2" stroke="darkRed" stroke-width="0.02" x1="4.5" x2="4.5" y1="14.9" y2="10.6"/>
<circle cx="4.5" cy="14.9" fill="black" font-size="0.2" r="0.04" stroke-width="0.02"/>
<circle cx="0.5" cy="5.3" fill="white" font-size="0.2" r="0.5" stroke="blue" stroke-width="0.02"/>
<text alignment-baseline="middle" fill="red" font-size="0.2" stroke-width="0.02" text-anchor="middle" x="0.5" y="5.2">input</text>
<text alignment-baseline="middle" fill="darkblue" font-size="0.2" stroke-width="0.02" text-anchor="middle" x="0.5" y="5.6">b1</text>
<circle cx="0.5" cy="6.5" fill="white" font-size="0.2" r="0.5" stroke="blue" stroke-width="0.02"/>
<text alignment-baseline="middle" fill="red" font-size="0.2" stroke-width="0.02" text-anchor="middle" x="0.5" y="6.4">input</text>
<text alignment-baseline="middle" fill="darkblue" font-size="0.2" stroke-width="0.02" text-anchor="middle" x="0.5" y="6.8">b2</text>
<circle cx="0.5" cy="7.7" fill="white" font-size="0.2" r="0.5" stroke="blue" stroke-width="0.02"/>
<text alignment-baseline="middle" fill="red" font-size="0.2" stroke-width="0.02" text-anchor="middle" x="0.5" y="7.6">input</text>
<text alignment-baseline="middle" fill="darkblue" font-size="0.2" stroke-width="0.02" text-anchor="middle" x="0.5" y="8">b3</text>
<circle cx="0.5" cy="8.9" fill="white" font-size="0.2" r="0.5" stroke="blue" stroke-width="0.02"/>
<text alignment-baseline="middle" fill="red" font-size="0.2" stroke-width="0.02" text-anchor="middle" x="0.5" y="8.8">input</text>
<text alignment-baseline="middle" fill="darkblue" font-size="0.2" stroke-width="0.02" text-anchor="middle" x="0.5" y="9.2">b4</text>
<rect fill="white" font-size="0.2" height="1" stroke="green" stroke-width="0.02" width="2" x="5" y="10.8"/>
<text alignment-baseline="middle" fill="red" font-size="0.2" stroke-width="0.02" text-anchor="middle" x="6" y="11.2">nxor</text>
<text alignment-baseline="middle" fill="darkblue" font-size="0.2" stroke-width="0.02" text-anchor="middle" x="6" y="11.6">e1</text>
<line font-size="0.2" stroke="black" stroke-width="0.02" x1="1" x2="5.5" y1="0.5" y2="0.5"/>
<line font-size="0.2" stroke="purple" stroke-width="0.02" x1="5.5" x2="5.5" y1="0.5" y2="10.8"/>
<circle cx="5.5" cy="0.5" fill="black" font-size="0.2" r="0.04" stroke-width="0.02"/>
<line font-size="0.2" stroke="black" stroke-width="0.02" x1="1" x2="6.5" y1="5.3" y2="5.3"/>
<line font-size="0.2" stroke="purple" stroke-width="0.02" x1="6.5" x2="6.5" y1="5.3" y2="10.8"/>
<circle cx="6.5" cy="5.3" fill="black" font-size="0.2" r="0.04" stroke-width="0.02"/>
<rect fill="white" font-size="0.2" height="1" stroke="green" stroke-width="0.02" width="2" x="7" y="12"/>
<text alignment-baseline="middle" fill="red" font-size="0.2" stroke-width="0.02" text-anchor="middle" x="8" y="12.4">nxor</text>
<text alignment-baseline="middle" fill="darkblue" font-size="0.2" stroke-width="0.02" text-anchor="middle" x="8" y="12.8">e2</text>
<line font-size="0.2" stroke="black" stroke-width="0.02" x1="1" x2="7.5" y1="1.7" y2="1.7"/>
<line font-size="0.2" stroke="purple" stroke-width="0.02" x1="7.5" x2="7.5" y1="1.7" y2="12"/>
<circle cx="7.5" cy="1.7" fill="black" font-size="0.2" r="0.04" stroke-width="0.02"/>
<line font-size="0.2" stroke="black" stroke-width="0.02" x1="1" x2="8.5" y1="6.5" y2="6.5"/>
<line font-size="0.2" stroke="purple" stroke-width="0.02" x1="8.5" x2="8.5" y1="6.5" y2="12"/>
<circle cx="8.5" cy="6.5" fill="black" font-size="0.2" r="0.04" stroke-width="0.02"/>
<rect fill="white" font-size="0.2" height="1" stroke="green" stroke-width="0.02" width="2" x="9" y="13.2"/>
<text alignment-baseline="middle" fill="red" font-size="0.2" stroke-width="0.02" text-anchor="middle" x="10" y="13.6">nxor</text>
<text alignment-baseline="middle" fill="darkblue" font-size="0.2" stroke-width="0.02" text-anchor="middle" x="10" y="14">e3</text>
<line font-size="0.2" stroke="black" stroke-width="0.02" x1="1" x2="9.5" y1="2.9" y2="2.9"/>
<line font-size="0.2" stroke="purple" stroke-width="0.02" x1="9.5" x2="9.5" y1="2.9" y2="13.2"/>
<circle cx="9.5" cy="2.9" fill="black" font-size="0.2" r="0.04" stroke-width="0.02"/>
<line font-size="0.2" stroke="black" stroke-width="0.02" x1="1" x2="10.5" y1="7.7" y2="7.7"/>
<line font-size="0.2" stroke="purple" stroke-width="0.02" x1="10.5" x2="10.5" y1="7.7" y2="13.2"/>
<circle cx="10.5" cy="7.7" fill="black" font-size="0.2" r="0.04" stroke-width="0.02"/>
<rect fill="white" font-size="0.2" height="1" stroke="green" stroke-width="0.02" width="2" x="11" y="14.4"/>
<text alignment-baseline="middle" fill="red" font-size="0.2" stroke-width="0.02" text-anchor="middle" x="12" y="14.8">nxor</text>
<text alignment-baseline="middle" fill="darkblue" font-size="0.2" stroke-width="0.02" text-anchor="middle" x="12" y="15.2">e4</text>
<line font-size="0.2" stroke="black" stroke-width="0.02" x1="1" x2="11.5" y1="4.1" y2="4.1"/>
<line font-size="0.2" stroke="purple" stroke-width="0.02" x1="11.5" x2="11.5" y1="4.1" y2="14.4"/>
<circle cx="11.5" cy="4.1" fill="black" font-size="0.2" r="0.04" stroke-width="0.02"/>
<line font-size="0.2" stroke="black" stroke-width="0.02" x1="1" x2="12.5" y1="8.9" y2="8.9"/>
<line font-size="0.2" stroke="purple" stroke-width="0.02" x1="12.5" x2="12.5" y1="8.9" y2="14.4"/>
<circle cx="12.5" cy="8.9" fill="black" font-size="0.2" r="0.04" stroke-width="0.02"/>
<circle cx="13.5" cy="16.1" fill="white" font-size="0.2" r="0.5" stroke="red" stroke-width="0.02"/>
<text alignment-baseline="middle" fill="red" font-size="0.2" stroke-width="0.02" text-anchor="middle" x="13.5" y="16">output</text>
<text alignment-baseline="middle" fill="darkblue" font-size="0.2" stroke-width="0.02" text-anchor="middle" x="13.5" y="16.4">out</text>
<line font-size="0.2" stroke="black" stroke-width="0.02" x1="5" x2="13.5" y1="10.1" y2="10.1"/>
<line font-size="0.2" stroke="purple" stroke-width="0.02" x1="13.5" x2="13.5" y1="10.1" y2="15.6"/>
<circle cx="13.5" cy="10.1" fill="black" font-size="0.2" r="0.04" stroke-width="0.02"/>
</svg>
