<?xml version="1.0" encoding="UTF-8" standalone="yes"?>
<!DOCTYPE svg PUBLIC "-//W3C//DTD SVG 1.0//EN" "http://www.w3.org/TR/2001/REC-SVG-20010904/DTD/svg10.dtd">
<svg height="100%" viewBox="0 0 10 10" width="100%" xmlns="http://www.w3.org/2000/svg" xmlns:svg="http://www.w3.org/2000/svg" xmlns:xlink="http://www.w3.org/1999/xlink">

<text fill="darkGreen" font-size="0.4" stroke-width="0.04" text-anchor="end" x="3" y="1" z="-1">2 steps</text>
<text fill="darkGreen" font-size="0.4" stroke-width="0.04" text-anchor="end" x="3" y="1.5" z="-1">5 thick</text>
<rect fill="mistyrose" font-size="0.2" height="1" stroke="transparent" stroke-width="0.02" width="1" x="1" y="0"/>
<rect fill="mistyrose" font-size="0.2" height="1" stroke="transparent" stroke-width="0.02" width="1" x="1" y="1"/>
<rect fill="mistyrose" font-size="0.2" height="1" stroke="transparent" stroke-width="0.02" width="1" x="1" y="2"/>
<rect fill="mistyrose" font-size="0.2" height="1" stroke="transparent" stroke-width="0.02" width="1" x="1" y="3"/>
<rect fill="mistyrose" font-size="0.2" height="1" stroke="transparent" stroke-width="0.02" width="1" x="1" y="4"/>
<rect fill="mistyrose" font-size="0.2" height="1" stroke="transparent" stroke-width="0.02" width="1" x="2" y="0"/>
<rect fill="mistyrose" font-size="0.2" height="1" stroke="transparent" stroke-width="0.02" width="1" x="2" y="1"/>
<rect fill="mistyrose" font-size="0.2" height="1" stroke="transparent" stroke-width="0.02" width="1" x="2" y="2"/>
<rect fill="mistyrose" font-size="0.2" height="1" stroke="transparent" stroke-width="0.02" width="1" x="2" y="3"/>
<rect fill="mistyrose" font-size="0.2" height="1" stroke="transparent" stroke-width="0.02" width="1" x="2" y="4"/>
<rect fill="mistyrose" font-size="0.2" height="1" stroke="transparent" stroke-width="0.02" width="1" x="3" y="0"/>
<rect fill="mistyrose" font-size="0.2" height="1" stroke="transparent" stroke-width="0.02" width="1" x="3" y="1"/>
<rect fill="mistyrose" font-size="0.2" height="1" stroke="transparent" stroke-width="0.02" width="1" x="3" y="2"/>
<rect fill="mistyrose" font-size="0.2" height="1" stroke="transparent" stroke-width="0.02" width="1" x="3" y="3"/>
<rect fill="mistyrose" font-size="0.2" height="1" stroke="transparent" stroke-width="0.02" width="1" x="3" y="4"/>
<rect fill="mistyrose" font-size="0.2" height="1" stroke="transparent" stroke-width="0.02" width="1" x="3" y="5"/>
<rect fill="mistyrose" font-size="0.2" height="1" stroke="transparent" stroke-width="0.02" width="1" x="4" y="0"/>
<rect fill="mistyrose" font-size="0.2" height="1" stroke="transparent" stroke-width="0.02" width="1" x="4" y="1"/>
<rect fill="mistyrose" font-size="0.2" height="1" stroke="transparent" stroke-width="0.02" width="1" x="4" y="2"/>
<rect fill="mistyrose" font-size="0.2" height="1" stroke="transparent" stroke-width="0.02" width="1" x="4" y="3"/>
<rect fill="mistyrose" font-size="0.2" height="1" stroke="transparent" stroke-width="0.02" width="1" x="4" y="4"/>
<rect fill="mistyrose" font-size="0.2" height="1" stroke="transparent" stroke-width="0.02" width="1" x="4" y="5"/>
<rect fill="mistyrose" font-size="0.2" height="1" stroke="transparent" stroke-width="0.02" width="1" x="5" y="0"/>
<rect fill="mistyrose" font-size="0.2" height="1" stroke="transparent" stroke-width="0.02" width="1" x="5" y="1"/>
<rect fill="mistyrose" font-size="0.2" height="1" stroke="transparent" stroke-width="0.02" width="1" x="5" y="2"/>
<rect fill="mistyrose" font-size="0.2" height="1" stroke="transparent" stroke-width="0.02" width="1" x="5" y="3"/>
<rect fill="mistyrose" font-size="0.2" height="1" stroke="transparent" stroke-width="0.02" width="1" x="5" y="4"/>
<rect fill="mistyrose" font-size="0.2" height="1" stroke="transparent" stroke-width="0.02" width="1" x="5" y="5"/>
<rect fill="mistyrose" font-size="0.2" height="1" stroke="transparent" stroke-width="0.02" width="1" x="5" y="6"/>
<rect fill="mistyrose" font-size="0.2" height="1" stroke="transparent" stroke-width="0.02" width="1" x="6" y="0"/>
<rect fill="mistyrose" font-size="0.2" height="1" stroke="transparent" stroke-width="0.02" width="1" x="6" y="1"/>
<rect fill="mistyrose" font-size="0.2" height="1" stroke="transparent" stroke-width="0.02" width="1" x="6" y="2"/>
<rect fill="mistyrose" font-size="0.2" height="1" stroke="transparent" stroke-width="0.02" width="1" x="6" y="3"/>
<rect fill="mistyrose" font-size="0.2" height="1" stroke="transparent" stroke-width="0.02" width="1" x="6" y="4"/>
<rect fill="mistyrose" font-size="0.2" height="1" stroke="transparent" stroke-width="0.02" width="1" x="6" y="5"/>
<rect fill="mistyrose" font-size="0.2" height="1" stroke="transparent" stroke-width="0.02" width="1" x="6" y="6"/>
<rect fill="mistyrose" font-size="0.2" height="1" stroke="transparent" stroke-width="0.02" width="1" x="7" y="0"/>
<rect fill="mistyrose" font-size="0.2" height="1" stroke="transparent" stroke-width="0.02" width="1" x="7" y="1"/>
<rect fill="mistyrose" font-size="0.2" height="1" stroke="transparent" stroke-width="0.02" width="1" x="7" y="2"/>
<rect fill="mistyrose" font-size="0.2" height="1" stroke="transparent" stroke-width="0.02" width="1" x="7" y="3"/>
<rect fill="mistyrose" font-size="0.2" height="1" stroke="transparent" stroke-width="0.02" width="1" x="7" y="4"/>
<rect fill="mistyrose" font-size="0.2" height="1" stroke="transparent" stroke-width="0.02" width="1" x="7" y="5"/>
<rect fill="mistyrose" font-size="0.2" height="1" stroke="transparent" stroke-width="0.02" width="1" x="7" y="6"/>
<rect fill="mistyrose" font-size="0.2" height="1" stroke="transparent" stroke-width="0.02" width="1" x="7" y="7"/>
<rect fill="mistyrose" font-size="0.2" height="1" stroke="transparent" stroke-width="0.02" width="1" x="8" y="0"/>
<rect fill="mistyrose" font-size="0.2" height="1" stroke="transparent" stroke-width="0.02" width="1" x="8" y="1"/>
<rect fill="mistyrose" font-size="0.2" height="1" stroke="transparent" stroke-width="0.02" width="1" x="8" y="2"/>
<rect fill="mistyrose" font-size="0.2" height="1" stroke="transparent" stroke-width="0.02" width="1" x="8" y="3"/>
<rect fill="mistyrose" font-size="0.2" height="1" stroke="transparent" stroke-width="0.02" width="1" x="8" y="4"/>
<rect fill="mistyrose" font-size="0.2" height="1" stroke="transparent" stroke-width="0.02" width="1" x="8" y="5"/>
<rect fill="mistyrose" font-size="0.2" height="1" stroke="transparent" stroke-width="0.02" width="1" x="8" y="6"/>
<rect fill="mistyrose" font-size="0.2" height="1" stroke="transparent" stroke-width="0.02" width="1" x="8" y="7"/>
<circle cx="0.5" cy="0.5" fill="transparent" font-size="0.2" r="0.5" stroke="blue" stroke-width="0.02"/>
<text dominant-baseline="hanging" fill="black" font-size="0.4" stroke-width="0.04" text-anchor="start" x="0" y="0">1</text>
<text dominant-baseline="auto" fill="red" font-size="0.2" stroke-width="0.02" text-anchor="middle" x="0.5" y="0.416666666666667">input</text>
<text dominant-baseline="hanging" fill="darkblue" font-size="0.2" stroke-width="0.02" text-anchor="middle" x="0.5" y="0.583333333333333">a_1</text>
<circle cx="0.5" cy="1.5" fill="transparent" font-size="0.2" r="0.5" stroke="blue" stroke-width="0.02"/>
<text dominant-baseline="hanging" fill="black" font-size="0.4" stroke-width="0.04" text-anchor="start" x="0" y="1">1</text>
<text dominant-baseline="auto" fill="red" font-size="0.2" stroke-width="0.02" text-anchor="middle" x="0.5" y="1.41666666666667">input</text>
<text dominant-baseline="hanging" fill="darkblue" font-size="0.2" stroke-width="0.02" text-anchor="middle" x="0.5" y="1.58333333333333">a_2</text>
<circle cx="0.5" cy="2.5" fill="transparent" font-size="0.2" r="0.5" stroke="blue" stroke-width="0.02"/>
<text dominant-baseline="hanging" fill="black" font-size="0.4" stroke-width="0.04" text-anchor="start" x="0" y="2">0</text>
<text dominant-baseline="auto" fill="red" font-size="0.2" stroke-width="0.02" text-anchor="middle" x="0.5" y="2.41666666666667">input</text>
<text dominant-baseline="hanging" fill="darkblue" font-size="0.2" stroke-width="0.02" text-anchor="middle" x="0.5" y="2.58333333333333">a_3</text>
<circle cx="0.5" cy="3.5" fill="transparent" font-size="0.2" r="0.5" stroke="blue" stroke-width="0.02"/>
<text dominant-baseline="hanging" fill="black" font-size="0.4" stroke-width="0.04" text-anchor="start" x="0" y="3">0</text>
<text dominant-baseline="auto" fill="red" font-size="0.2" stroke-width="0.02" text-anchor="middle" x="0.5" y="3.41666666666667">input</text>
<text dominant-baseline="hanging" fill="darkblue" font-size="0.2" stroke-width="0.02" text-anchor="middle" x="0.5" y="3.58333333333333">a_4</text>
<circle cx="0.5" cy="4.5" fill="transparent" font-size="0.2" r="0.5" stroke="blue" stroke-width="0.02"/>
<text dominant-baseline="hanging" fill="black" font-size="0.4" stroke-width="0.04" text-anchor="start" x="0" y="4">1</text>
<text dominant-baseline="auto" fill="red" font-size="0.2" stroke-width="0.02" text-anchor="middle" x="0.5" y="4.41666666666667">input</text>
<text dominant-baseline="hanging" fill="darkblue" font-size="0.2" stroke-width="0.02" text-anchor="middle" x="0.5" y="4.58333333333333">c</text>
<rect fill="transparent" font-size="0.2" height="1" stroke="green" stroke-width="0.02" width="2" x="1" y="5"/>
<text dominant-baseline="hanging" fill="black" font-size="0.4" stroke-width="0.04" text-anchor="start" x="1" y="5">1</text>
<text fill="darkBlue" font-size="0.2" stroke-width="0.02" text-anchor="end" x="3" y="6">1</text>
<text dominant-baseline="auto" fill="red" font-size="0.2" stroke-width="0.02" text-anchor="middle" x="2" y="5.41666666666667">and</text>
<text dominant-baseline="hanging" fill="darkblue" font-size="0.2" stroke-width="0.02" text-anchor="middle" x="2" y="5.58333333333333">o_1</text>
<text dominant-baseline="hanging" fill="darkRed" font-size="0.2" stroke-width="0.02" text-anchor="middle" x="1.5" y="5">1</text>
<text dominant-baseline="hanging" fill="darkRed" font-size="0.2" stroke-width="0.02" text-anchor="middle" x="2.5" y="5">1</text>
<rect fill="transparent" font-size="0.2" height="1" stroke="green" stroke-width="0.02" width="2" x="3" y="6"/>
<text dominant-baseline="hanging" fill="black" font-size="0.4" stroke-width="0.04" text-anchor="start" x="3" y="6">1</text>
<text fill="darkBlue" font-size="0.2" stroke-width="0.02" text-anchor="end" x="5" y="7">1</text>
<text dominant-baseline="auto" fill="red" font-size="0.2" stroke-width="0.02" text-anchor="middle" x="4" y="6.41666666666667">and</text>
<text dominant-baseline="hanging" fill="darkblue" font-size="0.2" stroke-width="0.02" text-anchor="middle" x="4" y="6.58333333333333">o_2</text>
<text dominant-baseline="hanging" fill="darkRed" font-size="0.2" stroke-width="0.02" text-anchor="middle" x="3.5" y="6">1</text>
<text dominant-baseline="hanging" fill="darkRed" font-size="0.2" stroke-width="0.02" text-anchor="middle" x="4.5" y="6">1</text>
<rect fill="transparent" font-size="0.2" height="1" stroke="green" stroke-width="0.02" width="2" x="5" y="7"/>
<text dominant-baseline="hanging" fill="black" font-size="0.4" stroke-width="0.04" text-anchor="start" x="5" y="7">0</text>
<text fill="darkBlue" font-size="0.2" stroke-width="0.02" text-anchor="end" x="7" y="8">1</text>
<text dominant-baseline="auto" fill="red" font-size="0.2" stroke-width="0.02" text-anchor="middle" x="6" y="7.41666666666667">and</text>
<text dominant-baseline="hanging" fill="darkblue" font-size="0.2" stroke-width="0.02" text-anchor="middle" x="6" y="7.58333333333333">o_3</text>
<text dominant-baseline="hanging" fill="darkRed" font-size="0.2" stroke-width="0.02" text-anchor="middle" x="5.5" y="7">0</text>
<text dominant-baseline="hanging" fill="darkRed" font-size="0.2" stroke-width="0.02" text-anchor="middle" x="6.5" y="7">1</text>
<rect fill="transparent" font-size="0.2" height="1" stroke="green" stroke-width="0.02" width="2" x="7" y="8"/>
<text dominant-baseline="hanging" fill="black" font-size="0.4" stroke-width="0.04" text-anchor="start" x="7" y="8">0</text>
<text fill="darkBlue" font-size="0.2" stroke-width="0.02" text-anchor="end" x="9" y="9">1</text>
<text dominant-baseline="auto" fill="red" font-size="0.2" stroke-width="0.02" text-anchor="middle" x="8" y="8.41666666666667">and</text>
<text dominant-baseline="hanging" fill="darkblue" font-size="0.2" stroke-width="0.02" text-anchor="middle" x="8" y="8.58333333333333">o_4</text>
<text dominant-baseline="hanging" fill="darkRed" font-size="0.2" stroke-width="0.02" text-anchor="middle" x="7.5" y="8">0</text>
<text dominant-baseline="hanging" fill="darkRed" font-size="0.2" stroke-width="0.02" text-anchor="middle" x="8.5" y="8">1</text>
<circle cx="0.5" cy="5.5" fill="transparent" font-size="0.2" r="0.5" stroke="red" stroke-width="0.02"/>
<text dominant-baseline="hanging" fill="black" font-size="0.4" stroke-width="0.04" text-anchor="end" x="0" y="5">1</text>
<text dominant-baseline="auto" fill="red" font-size="0.2" stroke-width="0.02" text-anchor="middle" x="0.5" y="5.41666666666667">output</text>
<text dominant-baseline="hanging" fill="darkblue" font-size="0.2" stroke-width="0.02" text-anchor="middle" x="0.5" y="5.58333333333333">out_1</text>
<circle cx="2.5" cy="6.5" fill="transparent" font-size="0.2" r="0.5" stroke="red" stroke-width="0.02"/>
<text dominant-baseline="hanging" fill="black" font-size="0.4" stroke-width="0.04" text-anchor="end" x="2" y="6">1</text>
<text dominant-baseline="auto" fill="red" font-size="0.2" stroke-width="0.02" text-anchor="middle" x="2.5" y="6.41666666666667">output</text>
<text dominant-baseline="hanging" fill="darkblue" font-size="0.2" stroke-width="0.02" text-anchor="middle" x="2.5" y="6.58333333333333">out_2</text>
<circle cx="4.5" cy="7.5" fill="transparent" font-size="0.2" r="0.5" stroke="red" stroke-width="0.02"/>
<text dominant-baseline="hanging" fill="black" font-size="0.4" stroke-width="0.04" text-anchor="end" x="4" y="7">0</text>
<text dominant-baseline="auto" fill="red" font-size="0.2" stroke-width="0.02" text-anchor="middle" x="4.5" y="7.41666666666667">output</text>
<text dominant-baseline="hanging" fill="darkblue" font-size="0.2" stroke-width="0.02" text-anchor="middle" x="4.5" y="7.58333333333333">out_3</text>
<circle cx="6.5" cy="8.5" fill="transparent" font-size="0.2" r="0.5" stroke="red" stroke-width="0.02"/>
<text dominant-baseline="hanging" fill="black" font-size="0.4" stroke-width="0.04" text-anchor="end" x="6" y="8">0</text>
<text dominant-baseline="auto" fill="red" font-size="0.2" stroke-width="0.02" text-anchor="middle" x="6.5" y="8.41666666666667">output</text>
<text dominant-baseline="hanging" fill="darkblue" font-size="0.2" stroke-width="0.02" text-anchor="middle" x="6.5" y="8.58333333333333">out_4</text>
<line fill="transparent" font-size="0.2" stroke="darkgreen" stroke-width="0.04" x1="1" x2="1.5" y1="0.5" y2="0.5"/>
<line fill="transparent" font-size="0.2" stroke="darkblue" stroke-width="0.04" x1="1.5" x2="1.5" y1="0" y2="0.5"/>
<line fill="transparent" font-size="0.2" stroke="darkblue" stroke-width="0.04" x1="1.5" x2="1.5" y1="0.5" y2="1"/>
<circle cx="1.5" cy="0.5" fill="darkRed" font-size="0.2" r="0.06" stroke-width="0.02"/>
<line fill="transparent" font-size="0.2" stroke="darkgreen" stroke-width="0.04" x1="1" x2="2" y1="1.5" y2="1.5"/>
<line fill="transparent" font-size="0.2" stroke="darkblue" stroke-width="0.04" x1="1.5" x2="1.5" y1="1" y2="2"/>
<line fill="transparent" font-size="0.2" stroke="darkgreen" stroke-width="0.04" x1="1" x2="2" y1="2.5" y2="2.5"/>
<line fill="transparent" font-size="0.2" stroke="darkblue" stroke-width="0.04" x1="1.5" x2="1.5" y1="2" y2="3"/>
<line fill="transparent" font-size="0.2" stroke="darkgreen" stroke-width="0.04" x1="1" x2="2" y1="3.5" y2="3.5"/>
<line fill="transparent" font-size="0.2" stroke="darkblue" stroke-width="0.04" x1="1.5" x2="1.5" y1="3" y2="4"/>
<line fill="transparent" font-size="0.2" stroke="darkgreen" stroke-width="0.04" x1="1" x2="2" y1="4.5" y2="4.5"/>
<line fill="transparent" font-size="0.2" stroke="darkblue" stroke-width="0.04" x1="1.5" x2="1.5" y1="4" y2="5"/>
<line fill="transparent" font-size="0.2" stroke="darkgreen" stroke-width="0.04" x1="2" x2="3" y1="1.5" y2="1.5"/>
<line fill="transparent" font-size="0.2" stroke="darkgreen" stroke-width="0.04" x1="2" x2="3" y1="2.5" y2="2.5"/>
<line fill="transparent" font-size="0.2" stroke="darkgreen" stroke-width="0.04" x1="2" x2="3" y1="3.5" y2="3.5"/>
<line fill="transparent" font-size="0.2" stroke="darkgreen" stroke-width="0.04" x1="2" x2="2.5" y1="4.5" y2="4.5"/>
<line fill="transparent" font-size="0.2" stroke="darkgreen" stroke-width="0.04" x1="2.5" x2="3" y1="4.5" y2="4.5"/>
<line fill="transparent" font-size="0.2" stroke="darkblue" stroke-width="0.04" x1="2.5" x2="2.5" y1="4.5" y2="5"/>
<circle cx="2.5" cy="4.5" fill="darkRed" font-size="0.2" r="0.06" stroke-width="0.02"/>
<line fill="transparent" font-size="0.2" stroke="darkgreen" stroke-width="0.04" x1="3" x2="3.5" y1="1.5" y2="1.5"/>
<line fill="transparent" font-size="0.2" stroke="darkblue" stroke-width="0.04" x1="3.5" x2="3.5" y1="1.5" y2="2"/>
<circle cx="3.5" cy="1.5" fill="darkRed" font-size="0.2" r="0.06" stroke-width="0.02"/>
<line fill="transparent" font-size="0.2" stroke="darkgreen" stroke-width="0.04" x1="3" x2="4" y1="2.5" y2="2.5"/>
<line fill="transparent" font-size="0.2" stroke="darkblue" stroke-width="0.04" x1="3.5" x2="3.5" y1="2" y2="3"/>
<line fill="transparent" font-size="0.2" stroke="darkgreen" stroke-width="0.04" x1="3" x2="4" y1="3.5" y2="3.5"/>
<line fill="transparent" font-size="0.2" stroke="darkblue" stroke-width="0.04" x1="3.5" x2="3.5" y1="3" y2="4"/>
<line fill="transparent" font-size="0.2" stroke="darkgreen" stroke-width="0.04" x1="3" x2="4" y1="4.5" y2="4.5"/>
<line fill="transparent" font-size="0.2" stroke="darkblue" stroke-width="0.04" x1="3.5" x2="3.5" y1="4" y2="5"/>
<line fill="transparent" font-size="0.2" stroke="darkblue" stroke-width="0.04" x1="3.5" x2="3.5" y1="5" y2="6"/>
<line fill="transparent" font-size="0.2" stroke="darkgreen" stroke-width="0.04" x1="4" x2="5" y1="2.5" y2="2.5"/>
<line fill="transparent" font-size="0.2" stroke="darkgreen" stroke-width="0.04" x1="4" x2="5" y1="3.5" y2="3.5"/>
<line fill="transparent" font-size="0.2" stroke="darkgreen" stroke-width="0.04" x1="4" x2="4.5" y1="4.5" y2="4.5"/>
<line fill="transparent" font-size="0.2" stroke="darkgreen" stroke-width="0.04" x1="4.5" x2="5" y1="4.5" y2="4.5"/>
<line fill="transparent" font-size="0.2" stroke="darkblue" stroke-width="0.04" x1="4.5" x2="4.5" y1="4.5" y2="5"/>
<circle cx="4.5" cy="4.5" fill="darkRed" font-size="0.2" r="0.06" stroke-width="0.02"/>
<line fill="transparent" font-size="0.2" stroke="darkblue" stroke-width="0.04" x1="4.5" x2="4.5" y1="5" y2="6"/>
<line fill="transparent" font-size="0.2" stroke="darkgreen" stroke-width="0.04" x1="5" x2="5.5" y1="2.5" y2="2.5"/>
<line fill="transparent" font-size="0.2" stroke="darkblue" stroke-width="0.04" x1="5.5" x2="5.5" y1="2.5" y2="3"/>
<circle cx="5.5" cy="2.5" fill="darkRed" font-size="0.2" r="0.06" stroke-width="0.02"/>
<line fill="transparent" font-size="0.2" stroke="darkgreen" stroke-width="0.04" x1="5" x2="6" y1="3.5" y2="3.5"/>
<line fill="transparent" font-size="0.2" stroke="darkblue" stroke-width="0.04" x1="5.5" x2="5.5" y1="3" y2="4"/>
<line fill="transparent" font-size="0.2" stroke="darkgreen" stroke-width="0.04" x1="5" x2="6" y1="4.5" y2="4.5"/>
<line fill="transparent" font-size="0.2" stroke="darkblue" stroke-width="0.04" x1="5.5" x2="5.5" y1="4" y2="5"/>
<line fill="transparent" font-size="0.2" stroke="darkblue" stroke-width="0.04" x1="5.5" x2="5.5" y1="5" y2="6"/>
<line fill="transparent" font-size="0.2" stroke="darkblue" stroke-width="0.04" x1="5.5" x2="5.5" y1="6" y2="7"/>
<line fill="transparent" font-size="0.2" stroke="darkgreen" stroke-width="0.04" x1="6" x2="7" y1="3.5" y2="3.5"/>
<line fill="transparent" font-size="0.2" stroke="darkgreen" stroke-width="0.04" x1="6" x2="6.5" y1="4.5" y2="4.5"/>
<line fill="transparent" font-size="0.2" stroke="darkgreen" stroke-width="0.04" x1="6.5" x2="7" y1="4.5" y2="4.5"/>
<line fill="transparent" font-size="0.2" stroke="darkblue" stroke-width="0.04" x1="6.5" x2="6.5" y1="4.5" y2="5"/>
<circle cx="6.5" cy="4.5" fill="darkRed" font-size="0.2" r="0.06" stroke-width="0.02"/>
<line fill="transparent" font-size="0.2" stroke="darkblue" stroke-width="0.04" x1="6.5" x2="6.5" y1="5" y2="6"/>
<line fill="transparent" font-size="0.2" stroke="darkblue" stroke-width="0.04" x1="6.5" x2="6.5" y1="6" y2="7"/>
<line fill="transparent" font-size="0.2" stroke="darkgreen" stroke-width="0.04" x1="7" x2="7.5" y1="3.5" y2="3.5"/>
<line fill="transparent" font-size="0.2" stroke="darkblue" stroke-width="0.04" x1="7.5" x2="7.5" y1="3.5" y2="4"/>
<circle cx="7.5" cy="3.5" fill="darkRed" font-size="0.2" r="0.06" stroke-width="0.02"/>
<line fill="transparent" font-size="0.2" stroke="darkgreen" stroke-width="0.04" x1="7" x2="8" y1="4.5" y2="4.5"/>
<line fill="transparent" font-size="0.2" stroke="darkblue" stroke-width="0.04" x1="7.5" x2="7.5" y1="4" y2="5"/>
<line fill="transparent" font-size="0.2" stroke="darkblue" stroke-width="0.04" x1="7.5" x2="7.5" y1="5" y2="6"/>
<line fill="transparent" font-size="0.2" stroke="darkblue" stroke-width="0.04" x1="7.5" x2="7.5" y1="6" y2="7"/>
<line fill="transparent" font-size="0.2" stroke="darkblue" stroke-width="0.04" x1="7.5" x2="7.5" y1="7" y2="8"/>
<line fill="transparent" font-size="0.2" stroke="darkgreen" stroke-width="0.04" x1="8" x2="8.5" y1="4.5" y2="4.5"/>
<line fill="transparent" font-size="0.2" stroke="darkblue" stroke-width="0.04" x1="8.5" x2="8.5" y1="4.5" y2="5"/>
<circle cx="8.5" cy="4.5" fill="darkRed" font-size="0.2" r="0.06" stroke-width="0.02"/>
<line fill="transparent" font-size="0.2" stroke="darkblue" stroke-width="0.04" x1="8.5" x2="8.5" y1="5" y2="6"/>
<line fill="transparent" font-size="0.2" stroke="darkblue" stroke-width="0.04" x1="8.5" x2="8.5" y1="6" y2="7"/>
<line fill="transparent" font-size="0.2" stroke="darkblue" stroke-width="0.04" x1="8.5" x2="8.5" y1="7" y2="8"/>
<line fill="transparent" font-size="0.2" opacity="0.2" stroke="black" stroke-width="0.01" x1="0" x2="0" y1="0" y2="10"/>
<line fill="transparent" font-size="0.2" opacity="0.2" stroke="black" stroke-width="0.01" x1="1" x2="1" y1="0" y2="10"/>
<line fill="transparent" font-size="0.2" opacity="0.2" stroke="black" stroke-width="0.01" x1="2" x2="2" y1="0" y2="10"/>
<line fill="transparent" font-size="0.2" opacity="0.2" stroke="black" stroke-width="0.01" x1="3" x2="3" y1="0" y2="10"/>
<line fill="transparent" font-size="0.2" opacity="0.2" stroke="black" stroke-width="0.01" x1="4" x2="4" y1="0" y2="10"/>
<line fill="transparent" font-size="0.2" opacity="0.2" stroke="black" stroke-width="0.01" x1="5" x2="5" y1="0" y2="10"/>
<line fill="transparent" font-size="0.2" opacity="0.2" stroke="black" stroke-width="0.01" x1="6" x2="6" y1="0" y2="10"/>
<line fill="transparent" font-size="0.2" opacity="0.2" stroke="black" stroke-width="0.01" x1="7" x2="7" y1="0" y2="10"/>
<line fill="transparent" font-size="0.2" opacity="0.2" stroke="black" stroke-width="0.01" x1="8" x2="8" y1="0" y2="10"/>
<line fill="transparent" font-size="0.2" opacity="0.2" stroke="black" stroke-width="0.01" x1="9" x2="9" y1="0" y2="10"/>
<line fill="transparent" font-size="0.2" opacity="0.2" stroke="black" stroke-width="0.01" x1="10" x2="10" y1="0" y2="10"/>
<line fill="transparent" font-size="0.2" opacity="0.2" stroke="black" stroke-width="0.01" x1="0" x2="10" y1="0" y2="0"/>
<line fill="transparent" font-size="0.2" opacity="0.2" stroke="black" stroke-width="0.01" x1="0" x2="10" y1="1" y2="1"/>
<line fill="transparent" font-size="0.2" opacity="0.2" stroke="black" stroke-width="0.01" x1="0" x2="10" y1="2" y2="2"/>
<line fill="transparent" font-size="0.2" opacity="0.2" stroke="black" stroke-width="0.01" x1="0" x2="10" y1="3" y2="3"/>
<line fill="transparent" font-size="0.2" opacity="0.2" stroke="black" stroke-width="0.01" x1="0" x2="10" y1="4" y2="4"/>
<line fill="transparent" font-size="0.2" opacity="0.2" stroke="black" stroke-width="0.01" x1="0" x2="10" y1="5" y2="5"/>
<line fill="transparent" font-size="0.2" opacity="0.2" stroke="black" stroke-width="0.01" x1="0" x2="10" y1="6" y2="6"/>
<line fill="transparent" font-size="0.2" opacity="0.2" stroke="black" stroke-width="0.01" x1="0" x2="10" y1="7" y2="7"/>
<line fill="transparent" font-size="0.2" opacity="0.2" stroke="black" stroke-width="0.01" x1="0" x2="10" y1="8" y2="8"/>
<line fill="transparent" font-size="0.2" opacity="0.2" stroke="black" stroke-width="0.01" x1="0" x2="10" y1="9" y2="9"/>
<line fill="transparent" font-size="0.2" opacity="0.2" stroke="black" stroke-width="0.01" x1="0" x2="10" y1="10" y2="10"/>
</svg>
