<?xml version="1.0" encoding="UTF-8" standalone="yes"?>
<!DOCTYPE svg PUBLIC "-//W3C//DTD SVG 1.0//EN" "http://www.w3.org/TR/2001/REC-SVG-20010904/DTD/svg10.dtd">
<svg height="100%" viewBox="0 0 90 20" width="100%" xmlns="http://www.w3.org/2000/svg" xmlns:svg="http://www.w3.org/2000/svg" xmlns:xlink="http://www.w3.org/1999/xlink">
<text fill="darkGreen" font-size="0.4" stroke-width="0.04" text-anchor="end" x="53" y="0.5">3 bit integer to 7 bits monotone mask</text>
<text fill="darkGreen" font-size="0.4" stroke-width="0.04" text-anchor="end" x="53" y="1.5">4 steps</text>
<rect fill="transparent" font-size="0.2" height="1" stroke="green" stroke-width="0.02" width="3" x="7" y="7"/>
<text dominant-baseline="hanging" fill="black" font-size="0.4" stroke-width="0.04" text-anchor="start" x="7" y="7">0</text>
<text dominant-baseline="auto" fill="red" font-size="0.2" stroke-width="0.02" text-anchor="middle" x="8.5" y="7.41666666666667">and</text>
<text dominant-baseline="hanging" fill="darkblue" font-size="0.2" stroke-width="0.02" text-anchor="middle" x="8.5" y="7.58333333333333">a_1</text>
<line font-size="0.2" stroke="black" stroke-width="0.02" x1="1" x2="7.5" y1="0.5" y2="0.5"/>
<line font-size="0.2" stroke="purple" stroke-width="0.02" x1="7.5" x2="7.5" y1="0.5" y2="7"/>
<circle cx="7.5" cy="0.5" fill="red" font-size="0.2" r="0.06" stroke-width="0.02"/>
<circle cx="7.5" cy="7" fill="blue" font-size="0.2" r="0.04" stroke-width="0.02"/>
<circle cx="1" cy="0.5" fill="red" font-size="0.2" r="0.04" stroke-width="0.02"/>
<text dominant-baseline="hanging" fill="black" font-size="0.2" stroke-width="0.02" text-anchor="middle" x="7.5" y="7.1">1</text>
<line font-size="0.2" stroke="black" stroke-width="0.02" x1="3" x2="8.5" y1="4.5" y2="4.5"/>
<line font-size="0.2" stroke="purple" stroke-width="0.02" x1="8.5" x2="8.5" y1="4.5" y2="7"/>
<circle cx="8.5" cy="4.5" fill="red" font-size="0.2" r="0.06" stroke-width="0.02"/>
<circle cx="8.5" cy="7" fill="blue" font-size="0.2" r="0.04" stroke-width="0.02"/>
<circle cx="3" cy="4.5" fill="red" font-size="0.2" r="0.04" stroke-width="0.02"/>
<text dominant-baseline="hanging" fill="black" font-size="0.2" stroke-width="0.02" text-anchor="middle" x="8.5" y="7.1">1</text>
<line font-size="0.2" stroke="black" stroke-width="0.02" x1="4" x2="9.5" y1="5.5" y2="5.5"/>
<line font-size="0.2" stroke="purple" stroke-width="0.02" x1="9.5" x2="9.5" y1="5.5" y2="7"/>
<circle cx="9.5" cy="5.5" fill="red" font-size="0.2" r="0.06" stroke-width="0.02"/>
<circle cx="9.5" cy="7" fill="blue" font-size="0.2" r="0.04" stroke-width="0.02"/>
<circle cx="4" cy="5.5" fill="red" font-size="0.2" r="0.04" stroke-width="0.02"/>
<text dominant-baseline="hanging" fill="black" font-size="0.2" stroke-width="0.02" text-anchor="middle" x="9.5" y="7.1">0</text>
<rect fill="transparent" font-size="0.2" height="1" stroke="green" stroke-width="0.02" width="3" x="10" y="8"/>
<text dominant-baseline="hanging" fill="black" font-size="0.4" stroke-width="0.04" text-anchor="start" x="10" y="8">0</text>
<text dominant-baseline="auto" fill="red" font-size="0.2" stroke-width="0.02" text-anchor="middle" x="11.5" y="8.41666666666667">and</text>
<text dominant-baseline="hanging" fill="darkblue" font-size="0.2" stroke-width="0.02" text-anchor="middle" x="11.5" y="8.58333333333333">a_2</text>
<line font-size="0.2" stroke="black" stroke-width="0.02" x1="1" x2="10.5" y1="1.5" y2="1.5"/>
<line font-size="0.2" stroke="purple" stroke-width="0.02" x1="10.5" x2="10.5" y1="1.5" y2="8"/>
<circle cx="10.5" cy="1.5" fill="red" font-size="0.2" r="0.06" stroke-width="0.02"/>
<circle cx="10.5" cy="8" fill="blue" font-size="0.2" r="0.04" stroke-width="0.02"/>
<circle cx="1" cy="1.5" fill="red" font-size="0.2" r="0.04" stroke-width="0.02"/>
<text dominant-baseline="hanging" fill="black" font-size="0.2" stroke-width="0.02" text-anchor="middle" x="10.5" y="8.1">0</text>
<line font-size="0.2" stroke="black" stroke-width="0.02" x1="2" x2="11.5" y1="3.5" y2="3.5"/>
<line font-size="0.2" stroke="purple" stroke-width="0.02" x1="11.5" x2="11.5" y1="3.5" y2="8"/>
<circle cx="11.5" cy="3.5" fill="red" font-size="0.2" r="0.06" stroke-width="0.02"/>
<circle cx="11.5" cy="8" fill="blue" font-size="0.2" r="0.04" stroke-width="0.02"/>
<circle cx="2" cy="3.5" fill="red" font-size="0.2" r="0.04" stroke-width="0.02"/>
<text dominant-baseline="hanging" fill="black" font-size="0.2" stroke-width="0.02" text-anchor="middle" x="11.5" y="8.1">0</text>
<line font-size="0.2" stroke="black" stroke-width="0.02" x1="4" x2="12.5" y1="5.5" y2="5.5"/>
<line font-size="0.2" stroke="purple" stroke-width="0.02" x1="12.5" x2="12.5" y1="5.5" y2="8"/>
<circle cx="12.5" cy="5.5" fill="red" font-size="0.2" r="0.06" stroke-width="0.02"/>
<circle cx="12.5" cy="8" fill="blue" font-size="0.2" r="0.04" stroke-width="0.02"/>
<circle cx="4" cy="5.5" fill="red" font-size="0.2" r="0.04" stroke-width="0.02"/>
<text dominant-baseline="hanging" fill="black" font-size="0.2" stroke-width="0.02" text-anchor="middle" x="12.5" y="8.1">0</text>
<rect fill="transparent" font-size="0.2" height="1" stroke="green" stroke-width="0.02" width="3" x="13" y="9"/>
<text dominant-baseline="hanging" fill="black" font-size="0.4" stroke-width="0.04" text-anchor="start" x="13" y="9">0</text>
<text dominant-baseline="auto" fill="red" font-size="0.2" stroke-width="0.02" text-anchor="middle" x="14.5" y="9.41666666666667">and</text>
<text dominant-baseline="hanging" fill="darkblue" font-size="0.2" stroke-width="0.02" text-anchor="middle" x="14.5" y="9.58333333333333">a_3</text>
<line font-size="0.2" stroke="black" stroke-width="0.02" x1="1" x2="13.5" y1="0.5" y2="0.5"/>
<line font-size="0.2" stroke="purple" stroke-width="0.02" x1="13.5" x2="13.5" y1="0.5" y2="9"/>
<circle cx="13.5" cy="0.5" fill="red" font-size="0.2" r="0.06" stroke-width="0.02"/>
<circle cx="13.5" cy="9" fill="blue" font-size="0.2" r="0.04" stroke-width="0.02"/>
<circle cx="1" cy="0.5" fill="red" font-size="0.2" r="0.04" stroke-width="0.02"/>
<text dominant-baseline="hanging" fill="black" font-size="0.2" stroke-width="0.02" text-anchor="middle" x="13.5" y="9.1">1</text>
<line font-size="0.2" stroke="black" stroke-width="0.02" x1="1" x2="14.5" y1="1.5" y2="1.5"/>
<line font-size="0.2" stroke="purple" stroke-width="0.02" x1="14.5" x2="14.5" y1="1.5" y2="9"/>
<circle cx="14.5" cy="1.5" fill="red" font-size="0.2" r="0.06" stroke-width="0.02"/>
<circle cx="14.5" cy="9" fill="blue" font-size="0.2" r="0.04" stroke-width="0.02"/>
<circle cx="1" cy="1.5" fill="red" font-size="0.2" r="0.04" stroke-width="0.02"/>
<text dominant-baseline="hanging" fill="black" font-size="0.2" stroke-width="0.02" text-anchor="middle" x="14.5" y="9.1">0</text>
<line font-size="0.2" stroke="black" stroke-width="0.02" x1="4" x2="15.5" y1="5.5" y2="5.5"/>
<line font-size="0.2" stroke="purple" stroke-width="0.02" x1="15.5" x2="15.5" y1="5.5" y2="9"/>
<circle cx="15.5" cy="5.5" fill="red" font-size="0.2" r="0.06" stroke-width="0.02"/>
<circle cx="15.5" cy="9" fill="blue" font-size="0.2" r="0.04" stroke-width="0.02"/>
<circle cx="4" cy="5.5" fill="red" font-size="0.2" r="0.04" stroke-width="0.02"/>
<text dominant-baseline="hanging" fill="black" font-size="0.2" stroke-width="0.02" text-anchor="middle" x="15.5" y="9.1">0</text>
<rect fill="transparent" font-size="0.2" height="1" stroke="green" stroke-width="0.02" width="3" x="16" y="10"/>
<text dominant-baseline="hanging" fill="black" font-size="0.4" stroke-width="0.04" text-anchor="start" x="16" y="10">0</text>
<text dominant-baseline="auto" fill="red" font-size="0.2" stroke-width="0.02" text-anchor="middle" x="17.5" y="10.4166666666667">and</text>
<text dominant-baseline="hanging" fill="darkblue" font-size="0.2" stroke-width="0.02" text-anchor="middle" x="17.5" y="10.5833333333333">a_4</text>
<line font-size="0.2" stroke="black" stroke-width="0.02" x1="1" x2="16.5" y1="2.5" y2="2.5"/>
<line font-size="0.2" stroke="purple" stroke-width="0.02" x1="16.5" x2="16.5" y1="2.5" y2="10"/>
<circle cx="16.5" cy="2.5" fill="red" font-size="0.2" r="0.06" stroke-width="0.02"/>
<circle cx="16.5" cy="10" fill="blue" font-size="0.2" r="0.04" stroke-width="0.02"/>
<circle cx="1" cy="2.5" fill="red" font-size="0.2" r="0.04" stroke-width="0.02"/>
<text dominant-baseline="hanging" fill="black" font-size="0.2" stroke-width="0.02" text-anchor="middle" x="16.5" y="10.1">1</text>
<line font-size="0.2" stroke="black" stroke-width="0.02" x1="2" x2="17.5" y1="3.5" y2="3.5"/>
<line font-size="0.2" stroke="purple" stroke-width="0.02" x1="17.5" x2="17.5" y1="3.5" y2="10"/>
<circle cx="17.5" cy="3.5" fill="red" font-size="0.2" r="0.06" stroke-width="0.02"/>
<circle cx="17.5" cy="10" fill="blue" font-size="0.2" r="0.04" stroke-width="0.02"/>
<circle cx="2" cy="3.5" fill="red" font-size="0.2" r="0.04" stroke-width="0.02"/>
<text dominant-baseline="hanging" fill="black" font-size="0.2" stroke-width="0.02" text-anchor="middle" x="17.5" y="10.1">0</text>
<line font-size="0.2" stroke="black" stroke-width="0.02" x1="3" x2="18.5" y1="4.5" y2="4.5"/>
<line font-size="0.2" stroke="purple" stroke-width="0.02" x1="18.5" x2="18.5" y1="4.5" y2="10"/>
<circle cx="18.5" cy="4.5" fill="red" font-size="0.2" r="0.06" stroke-width="0.02"/>
<circle cx="18.5" cy="10" fill="blue" font-size="0.2" r="0.04" stroke-width="0.02"/>
<circle cx="3" cy="4.5" fill="red" font-size="0.2" r="0.04" stroke-width="0.02"/>
<text dominant-baseline="hanging" fill="black" font-size="0.2" stroke-width="0.02" text-anchor="middle" x="18.5" y="10.1">1</text>
<rect fill="transparent" font-size="0.2" height="1" stroke="green" stroke-width="0.02" width="3" x="19" y="11"/>
<text dominant-baseline="hanging" fill="black" font-size="0.4" stroke-width="0.04" text-anchor="start" x="19" y="11">1</text>
<text dominant-baseline="auto" fill="red" font-size="0.2" stroke-width="0.02" text-anchor="middle" x="20.5" y="11.4166666666667">and</text>
<text dominant-baseline="hanging" fill="darkblue" font-size="0.2" stroke-width="0.02" text-anchor="middle" x="20.5" y="11.5833333333333">a_5</text>
<line font-size="0.2" stroke="black" stroke-width="0.02" x1="1" x2="19.5" y1="0.5" y2="0.5"/>
<line font-size="0.2" stroke="purple" stroke-width="0.02" x1="19.5" x2="19.5" y1="0.5" y2="11"/>
<circle cx="19.5" cy="0.5" fill="red" font-size="0.2" r="0.06" stroke-width="0.02"/>
<circle cx="19.5" cy="11" fill="blue" font-size="0.2" r="0.04" stroke-width="0.02"/>
<circle cx="1" cy="0.5" fill="red" font-size="0.2" r="0.04" stroke-width="0.02"/>
<text dominant-baseline="hanging" fill="black" font-size="0.2" stroke-width="0.02" text-anchor="middle" x="19.5" y="11.1">1</text>
<line font-size="0.2" stroke="black" stroke-width="0.02" x1="1" x2="20.5" y1="2.5" y2="2.5"/>
<line font-size="0.2" stroke="purple" stroke-width="0.02" x1="20.5" x2="20.5" y1="2.5" y2="11"/>
<circle cx="20.5" cy="2.5" fill="red" font-size="0.2" r="0.06" stroke-width="0.02"/>
<circle cx="20.5" cy="11" fill="blue" font-size="0.2" r="0.04" stroke-width="0.02"/>
<circle cx="1" cy="2.5" fill="red" font-size="0.2" r="0.04" stroke-width="0.02"/>
<text dominant-baseline="hanging" fill="black" font-size="0.2" stroke-width="0.02" text-anchor="middle" x="20.5" y="11.1">1</text>
<line font-size="0.2" stroke="black" stroke-width="0.02" x1="3" x2="21.5" y1="4.5" y2="4.5"/>
<line font-size="0.2" stroke="purple" stroke-width="0.02" x1="21.5" x2="21.5" y1="4.5" y2="11"/>
<circle cx="21.5" cy="4.5" fill="red" font-size="0.2" r="0.06" stroke-width="0.02"/>
<circle cx="21.5" cy="11" fill="blue" font-size="0.2" r="0.04" stroke-width="0.02"/>
<circle cx="3" cy="4.5" fill="red" font-size="0.2" r="0.04" stroke-width="0.02"/>
<text dominant-baseline="hanging" fill="black" font-size="0.2" stroke-width="0.02" text-anchor="middle" x="21.5" y="11.1">1</text>
<rect fill="transparent" font-size="0.2" height="1" stroke="green" stroke-width="0.02" width="3" x="22" y="12"/>
<text dominant-baseline="hanging" fill="black" font-size="0.4" stroke-width="0.04" text-anchor="start" x="22" y="12">0</text>
<text dominant-baseline="auto" fill="red" font-size="0.2" stroke-width="0.02" text-anchor="middle" x="23.5" y="12.4166666666667">and</text>
<text dominant-baseline="hanging" fill="darkblue" font-size="0.2" stroke-width="0.02" text-anchor="middle" x="23.5" y="12.5833333333333">a_6</text>
<line font-size="0.2" stroke="black" stroke-width="0.02" x1="1" x2="22.5" y1="1.5" y2="1.5"/>
<line font-size="0.2" stroke="purple" stroke-width="0.02" x1="22.5" x2="22.5" y1="1.5" y2="12"/>
<circle cx="22.5" cy="1.5" fill="red" font-size="0.2" r="0.06" stroke-width="0.02"/>
<circle cx="22.5" cy="12" fill="blue" font-size="0.2" r="0.04" stroke-width="0.02"/>
<circle cx="1" cy="1.5" fill="red" font-size="0.2" r="0.04" stroke-width="0.02"/>
<text dominant-baseline="hanging" fill="black" font-size="0.2" stroke-width="0.02" text-anchor="middle" x="22.5" y="12.1">0</text>
<line font-size="0.2" stroke="black" stroke-width="0.02" x1="1" x2="23.5" y1="2.5" y2="2.5"/>
<line font-size="0.2" stroke="purple" stroke-width="0.02" x1="23.5" x2="23.5" y1="2.5" y2="12"/>
<circle cx="23.5" cy="2.5" fill="red" font-size="0.2" r="0.06" stroke-width="0.02"/>
<circle cx="23.5" cy="12" fill="blue" font-size="0.2" r="0.04" stroke-width="0.02"/>
<circle cx="1" cy="2.5" fill="red" font-size="0.2" r="0.04" stroke-width="0.02"/>
<text dominant-baseline="hanging" fill="black" font-size="0.2" stroke-width="0.02" text-anchor="middle" x="23.5" y="12.1">1</text>
<line font-size="0.2" stroke="black" stroke-width="0.02" x1="2" x2="24.5" y1="3.5" y2="3.5"/>
<line font-size="0.2" stroke="purple" stroke-width="0.02" x1="24.5" x2="24.5" y1="3.5" y2="12"/>
<circle cx="24.5" cy="3.5" fill="red" font-size="0.2" r="0.06" stroke-width="0.02"/>
<circle cx="24.5" cy="12" fill="blue" font-size="0.2" r="0.04" stroke-width="0.02"/>
<circle cx="2" cy="3.5" fill="red" font-size="0.2" r="0.04" stroke-width="0.02"/>
<text dominant-baseline="hanging" fill="black" font-size="0.2" stroke-width="0.02" text-anchor="middle" x="24.5" y="12.1">0</text>
<rect fill="transparent" font-size="0.2" height="1" stroke="green" stroke-width="0.02" width="3" x="4" y="6"/>
<text dominant-baseline="hanging" fill="black" font-size="0.4" stroke-width="0.04" text-anchor="start" x="4" y="6">0</text>
<text dominant-baseline="auto" fill="red" font-size="0.2" stroke-width="0.02" text-anchor="middle" x="5.5" y="6.41666666666667">and</text>
<text dominant-baseline="hanging" fill="darkblue" font-size="0.2" stroke-width="0.02" text-anchor="middle" x="5.5" y="6.58333333333333">a_7</text>
<line font-size="0.2" stroke="black" stroke-width="0.02" x1="1" x2="4.5" y1="0.5" y2="0.5"/>
<line font-size="0.2" stroke="purple" stroke-width="0.02" x1="4.5" x2="4.5" y1="0.5" y2="6"/>
<circle cx="4.5" cy="0.5" fill="red" font-size="0.2" r="0.06" stroke-width="0.02"/>
<circle cx="4.5" cy="6" fill="blue" font-size="0.2" r="0.04" stroke-width="0.02"/>
<circle cx="1" cy="0.5" fill="red" font-size="0.2" r="0.04" stroke-width="0.02"/>
<text dominant-baseline="hanging" fill="black" font-size="0.2" stroke-width="0.02" text-anchor="middle" x="4.5" y="6.1">1</text>
<line font-size="0.2" stroke="black" stroke-width="0.02" x1="1" x2="5.5" y1="1.5" y2="1.5"/>
<line font-size="0.2" stroke="purple" stroke-width="0.02" x1="5.5" x2="5.5" y1="1.5" y2="6"/>
<circle cx="5.5" cy="1.5" fill="red" font-size="0.2" r="0.06" stroke-width="0.02"/>
<circle cx="5.5" cy="6" fill="blue" font-size="0.2" r="0.04" stroke-width="0.02"/>
<circle cx="1" cy="1.5" fill="red" font-size="0.2" r="0.04" stroke-width="0.02"/>
<text dominant-baseline="hanging" fill="black" font-size="0.2" stroke-width="0.02" text-anchor="middle" x="5.5" y="6.1">0</text>
<line font-size="0.2" stroke="black" stroke-width="0.02" x1="1" x2="6.5" y1="2.5" y2="2.5"/>
<line font-size="0.2" stroke="purple" stroke-width="0.02" x1="6.5" x2="6.5" y1="2.5" y2="6"/>
<circle cx="6.5" cy="2.5" fill="red" font-size="0.2" r="0.06" stroke-width="0.02"/>
<circle cx="6.5" cy="6" fill="blue" font-size="0.2" r="0.04" stroke-width="0.02"/>
<circle cx="1" cy="2.5" fill="red" font-size="0.2" r="0.04" stroke-width="0.02"/>
<text dominant-baseline="hanging" fill="black" font-size="0.2" stroke-width="0.02" text-anchor="middle" x="6.5" y="6.1">1</text>
<circle cx="0.5" cy="0.5" fill="transparent" font-size="0.2" r="0.5" stroke="blue" stroke-width="0.02"/>
<text dominant-baseline="hanging" fill="black" font-size="0.4" stroke-width="0.04" text-anchor="start" x="0" y="0">1</text>
<text dominant-baseline="auto" fill="red" font-size="0.2" stroke-width="0.02" text-anchor="middle" x="0.5" y="0.416666666666667">input</text>
<text dominant-baseline="hanging" fill="darkblue" font-size="0.2" stroke-width="0.02" text-anchor="middle" x="0.5" y="0.583333333333333">i_1</text>
<circle cx="0.5" cy="1.5" fill="transparent" font-size="0.2" r="0.5" stroke="blue" stroke-width="0.02"/>
<text dominant-baseline="hanging" fill="black" font-size="0.4" stroke-width="0.04" text-anchor="start" x="0" y="1">0</text>
<text dominant-baseline="auto" fill="red" font-size="0.2" stroke-width="0.02" text-anchor="middle" x="0.5" y="1.41666666666667">input</text>
<text dominant-baseline="hanging" fill="darkblue" font-size="0.2" stroke-width="0.02" text-anchor="middle" x="0.5" y="1.58333333333333">i_2</text>
<circle cx="0.5" cy="2.5" fill="transparent" font-size="0.2" r="0.5" stroke="blue" stroke-width="0.02"/>
<text dominant-baseline="hanging" fill="black" font-size="0.4" stroke-width="0.04" text-anchor="start" x="0" y="2">1</text>
<text dominant-baseline="auto" fill="red" font-size="0.2" stroke-width="0.02" text-anchor="middle" x="0.5" y="2.41666666666667">input</text>
<text dominant-baseline="hanging" fill="darkblue" font-size="0.2" stroke-width="0.02" text-anchor="middle" x="0.5" y="2.58333333333333">i_3</text>
<circle cx="52.5" cy="7.5" fill="transparent" font-size="0.2" r="0.5" stroke="red" stroke-width="0.02"/>
<text dominant-baseline="hanging" fill="black" font-size="0.4" stroke-width="0.04" text-anchor="end" x="53" y="7">0</text>
<text dominant-baseline="auto" fill="red" font-size="0.2" stroke-width="0.02" text-anchor="middle" x="52.5" y="7.41666666666667">output</text>
<text dominant-baseline="hanging" fill="darkblue" font-size="0.2" stroke-width="0.02" text-anchor="middle" x="52.5" y="7.58333333333333">m_1</text>
<line font-size="0.2" stroke="black" stroke-width="0.02" x1="10" x2="52" y1="7.5" y2="7.5"/>
<circle cx="52" cy="7.5" fill="blue" font-size="0.2" r="0.04" stroke-width="0.02"/>
<circle cx="10" cy="7.5" fill="red" font-size="0.2" r="0.04" stroke-width="0.02"/>
<circle cx="52.5" cy="13.5" fill="transparent" font-size="0.2" r="0.5" stroke="red" stroke-width="0.02"/>
<text dominant-baseline="hanging" fill="black" font-size="0.4" stroke-width="0.04" text-anchor="end" x="53" y="13">0</text>
<text dominant-baseline="auto" fill="red" font-size="0.2" stroke-width="0.02" text-anchor="middle" x="52.5" y="13.4166666666667">output</text>
<text dominant-baseline="hanging" fill="darkblue" font-size="0.2" stroke-width="0.02" text-anchor="middle" x="52.5" y="13.5833333333333">m_2</text>
<line font-size="0.2" stroke="black" stroke-width="0.02" x1="27" x2="52" y1="13.5" y2="13.5"/>
<circle cx="52" cy="13.5" fill="blue" font-size="0.2" r="0.04" stroke-width="0.02"/>
<circle cx="27" cy="13.5" fill="red" font-size="0.2" r="0.04" stroke-width="0.02"/>
<circle cx="52.5" cy="14.5" fill="transparent" font-size="0.2" r="0.5" stroke="red" stroke-width="0.02"/>
<text dominant-baseline="hanging" fill="black" font-size="0.4" stroke-width="0.04" text-anchor="end" x="53" y="14">0</text>
<text dominant-baseline="auto" fill="red" font-size="0.2" stroke-width="0.02" text-anchor="middle" x="52.5" y="14.4166666666667">output</text>
<text dominant-baseline="hanging" fill="darkblue" font-size="0.2" stroke-width="0.02" text-anchor="middle" x="52.5" y="14.5833333333333">m_3</text>
<line font-size="0.2" stroke="black" stroke-width="0.02" x1="30" x2="52" y1="14.5" y2="14.5"/>
<circle cx="52" cy="14.5" fill="blue" font-size="0.2" r="0.04" stroke-width="0.02"/>
<circle cx="30" cy="14.5" fill="red" font-size="0.2" r="0.04" stroke-width="0.02"/>
<circle cx="52.5" cy="15.5" fill="transparent" font-size="0.2" r="0.5" stroke="red" stroke-width="0.02"/>
<text dominant-baseline="hanging" fill="black" font-size="0.4" stroke-width="0.04" text-anchor="end" x="53" y="15">0</text>
<text dominant-baseline="auto" fill="red" font-size="0.2" stroke-width="0.02" text-anchor="middle" x="52.5" y="15.4166666666667">output</text>
<text dominant-baseline="hanging" fill="darkblue" font-size="0.2" stroke-width="0.02" text-anchor="middle" x="52.5" y="15.5833333333333">m_4</text>
<line font-size="0.2" stroke="black" stroke-width="0.02" x1="34" x2="52" y1="15.5" y2="15.5"/>
<circle cx="52" cy="15.5" fill="blue" font-size="0.2" r="0.04" stroke-width="0.02"/>
<circle cx="34" cy="15.5" fill="red" font-size="0.2" r="0.04" stroke-width="0.02"/>
<circle cx="52.5" cy="16.5" fill="transparent" font-size="0.2" r="0.5" stroke="red" stroke-width="0.02"/>
<text dominant-baseline="hanging" fill="black" font-size="0.4" stroke-width="0.04" text-anchor="end" x="53" y="16">1</text>
<text dominant-baseline="auto" fill="red" font-size="0.2" stroke-width="0.02" text-anchor="middle" x="52.5" y="16.4166666666667">output</text>
<text dominant-baseline="hanging" fill="darkblue" font-size="0.2" stroke-width="0.02" text-anchor="middle" x="52.5" y="16.5833333333333">m_5</text>
<line font-size="0.2" stroke="black" stroke-width="0.02" x1="39" x2="52" y1="16.5" y2="16.5"/>
<circle cx="52" cy="16.5" fill="blue" font-size="0.2" r="0.04" stroke-width="0.02"/>
<circle cx="39" cy="16.5" fill="red" font-size="0.2" r="0.04" stroke-width="0.02"/>
<circle cx="52.5" cy="17.5" fill="transparent" font-size="0.2" r="0.5" stroke="red" stroke-width="0.02"/>
<text dominant-baseline="hanging" fill="black" font-size="0.4" stroke-width="0.04" text-anchor="end" x="53" y="17">1</text>
<text dominant-baseline="auto" fill="red" font-size="0.2" stroke-width="0.02" text-anchor="middle" x="52.5" y="17.4166666666667">output</text>
<text dominant-baseline="hanging" fill="darkblue" font-size="0.2" stroke-width="0.02" text-anchor="middle" x="52.5" y="17.5833333333333">m_6</text>
<line font-size="0.2" stroke="black" stroke-width="0.02" x1="45" x2="52" y1="17.5" y2="17.5"/>
<circle cx="52" cy="17.5" fill="blue" font-size="0.2" r="0.04" stroke-width="0.02"/>
<circle cx="45" cy="17.5" fill="red" font-size="0.2" r="0.04" stroke-width="0.02"/>
<circle cx="52.5" cy="18.5" fill="transparent" font-size="0.2" r="0.5" stroke="red" stroke-width="0.02"/>
<text dominant-baseline="hanging" fill="black" font-size="0.4" stroke-width="0.04" text-anchor="end" x="53" y="18">1</text>
<text dominant-baseline="auto" fill="red" font-size="0.2" stroke-width="0.02" text-anchor="middle" x="52.5" y="18.4166666666667">output</text>
<text dominant-baseline="hanging" fill="darkblue" font-size="0.2" stroke-width="0.02" text-anchor="middle" x="52.5" y="18.5833333333333">m_7</text>
<line font-size="0.2" stroke="black" stroke-width="0.02" x1="52" x2="52" y1="18.5" y2="18.5"/>
<circle cx="52" cy="18.5" fill="blue" font-size="0.2" r="0.04" stroke-width="0.02"/>
<circle cx="52" cy="18.5" fill="red" font-size="0.2" r="0.04" stroke-width="0.02"/>
<rect fill="transparent" font-size="0.2" height="1" stroke="green" stroke-width="0.02" width="1" x="1" y="3"/>
<text dominant-baseline="hanging" fill="black" font-size="0.4" stroke-width="0.04" text-anchor="start" x="1" y="3">0</text>
<text dominant-baseline="auto" fill="red" font-size="0.2" stroke-width="0.02" text-anchor="middle" x="1.5" y="3.41666666666667">not</text>
<text dominant-baseline="hanging" fill="darkblue" font-size="0.2" stroke-width="0.02" text-anchor="middle" x="1.5" y="3.58333333333333">n_1</text>
<line font-size="0.2" stroke="black" stroke-width="0.02" x1="1" x2="1.5" y1="0.5" y2="0.5"/>
<line font-size="0.2" stroke="purple" stroke-width="0.02" x1="1.5" x2="1.5" y1="0.5" y2="3"/>
<circle cx="1.5" cy="0.5" fill="red" font-size="0.2" r="0.06" stroke-width="0.02"/>
<circle cx="1.5" cy="3" fill="blue" font-size="0.2" r="0.04" stroke-width="0.02"/>
<circle cx="1" cy="0.5" fill="red" font-size="0.2" r="0.04" stroke-width="0.02"/>
<text dominant-baseline="hanging" fill="black" font-size="0.2" stroke-width="0.02" text-anchor="middle" x="1.5" y="3.1">1</text>
<rect fill="transparent" font-size="0.2" height="1" stroke="green" stroke-width="0.02" width="1" x="2" y="4"/>
<text dominant-baseline="hanging" fill="black" font-size="0.4" stroke-width="0.04" text-anchor="start" x="2" y="4">1</text>
<text dominant-baseline="auto" fill="red" font-size="0.2" stroke-width="0.02" text-anchor="middle" x="2.5" y="4.41666666666667">not</text>
<text dominant-baseline="hanging" fill="darkblue" font-size="0.2" stroke-width="0.02" text-anchor="middle" x="2.5" y="4.58333333333333">n_2</text>
<line font-size="0.2" stroke="black" stroke-width="0.02" x1="1" x2="2.5" y1="1.5" y2="1.5"/>
<line font-size="0.2" stroke="purple" stroke-width="0.02" x1="2.5" x2="2.5" y1="1.5" y2="4"/>
<circle cx="2.5" cy="1.5" fill="red" font-size="0.2" r="0.06" stroke-width="0.02"/>
<circle cx="2.5" cy="4" fill="blue" font-size="0.2" r="0.04" stroke-width="0.02"/>
<circle cx="1" cy="1.5" fill="red" font-size="0.2" r="0.04" stroke-width="0.02"/>
<text dominant-baseline="hanging" fill="black" font-size="0.2" stroke-width="0.02" text-anchor="middle" x="2.5" y="4.1">0</text>
<rect fill="transparent" font-size="0.2" height="1" stroke="green" stroke-width="0.02" width="1" x="3" y="5"/>
<text dominant-baseline="hanging" fill="black" font-size="0.4" stroke-width="0.04" text-anchor="start" x="3" y="5">0</text>
<text dominant-baseline="auto" fill="red" font-size="0.2" stroke-width="0.02" text-anchor="middle" x="3.5" y="5.41666666666667">not</text>
<text dominant-baseline="hanging" fill="darkblue" font-size="0.2" stroke-width="0.02" text-anchor="middle" x="3.5" y="5.58333333333333">n_3</text>
<line font-size="0.2" stroke="black" stroke-width="0.02" x1="1" x2="3.5" y1="2.5" y2="2.5"/>
<line font-size="0.2" stroke="purple" stroke-width="0.02" x1="3.5" x2="3.5" y1="2.5" y2="5"/>
<circle cx="3.5" cy="2.5" fill="red" font-size="0.2" r="0.06" stroke-width="0.02"/>
<circle cx="3.5" cy="5" fill="blue" font-size="0.2" r="0.04" stroke-width="0.02"/>
<circle cx="1" cy="2.5" fill="red" font-size="0.2" r="0.04" stroke-width="0.02"/>
<text dominant-baseline="hanging" fill="black" font-size="0.2" stroke-width="0.02" text-anchor="middle" x="3.5" y="5.1">1</text>
<rect fill="transparent" font-size="0.2" height="1" stroke="green" stroke-width="0.02" width="2" x="25" y="13"/>
<text dominant-baseline="hanging" fill="black" font-size="0.4" stroke-width="0.04" text-anchor="start" x="25" y="13">0</text>
<text dominant-baseline="auto" fill="red" font-size="0.2" stroke-width="0.02" text-anchor="middle" x="26" y="13.4166666666667">or</text>
<text dominant-baseline="hanging" fill="darkblue" font-size="0.2" stroke-width="0.02" text-anchor="middle" x="26" y="13.5833333333333">o_2</text>
<line font-size="0.2" stroke="black" stroke-width="0.02" x1="10" x2="25.5" y1="7.5" y2="7.5"/>
<line font-size="0.2" stroke="purple" stroke-width="0.02" x1="25.5" x2="25.5" y1="7.5" y2="13"/>
<circle cx="25.5" cy="7.5" fill="red" font-size="0.2" r="0.06" stroke-width="0.02"/>
<circle cx="25.5" cy="13" fill="blue" font-size="0.2" r="0.04" stroke-width="0.02"/>
<circle cx="10" cy="7.5" fill="red" font-size="0.2" r="0.04" stroke-width="0.02"/>
<text dominant-baseline="hanging" fill="black" font-size="0.2" stroke-width="0.02" text-anchor="middle" x="25.5" y="13.1">0</text>
<line font-size="0.2" stroke="black" stroke-width="0.02" x1="13" x2="26.5" y1="8.5" y2="8.5"/>
<line font-size="0.2" stroke="purple" stroke-width="0.02" x1="26.5" x2="26.5" y1="8.5" y2="13"/>
<circle cx="26.5" cy="8.5" fill="red" font-size="0.2" r="0.06" stroke-width="0.02"/>
<circle cx="26.5" cy="13" fill="blue" font-size="0.2" r="0.04" stroke-width="0.02"/>
<circle cx="13" cy="8.5" fill="red" font-size="0.2" r="0.04" stroke-width="0.02"/>
<text dominant-baseline="hanging" fill="black" font-size="0.2" stroke-width="0.02" text-anchor="middle" x="26.5" y="13.1">0</text>
<rect fill="transparent" font-size="0.2" height="1" stroke="green" stroke-width="0.02" width="3" x="27" y="14"/>
<text dominant-baseline="hanging" fill="black" font-size="0.4" stroke-width="0.04" text-anchor="start" x="27" y="14">0</text>
<text dominant-baseline="auto" fill="red" font-size="0.2" stroke-width="0.02" text-anchor="middle" x="28.5" y="14.4166666666667">or</text>
<text dominant-baseline="hanging" fill="darkblue" font-size="0.2" stroke-width="0.02" text-anchor="middle" x="28.5" y="14.5833333333333">o_3</text>
<line font-size="0.2" stroke="black" stroke-width="0.02" x1="10" x2="27.5" y1="7.5" y2="7.5"/>
<line font-size="0.2" stroke="purple" stroke-width="0.02" x1="27.5" x2="27.5" y1="7.5" y2="14"/>
<circle cx="27.5" cy="7.5" fill="red" font-size="0.2" r="0.06" stroke-width="0.02"/>
<circle cx="27.5" cy="14" fill="blue" font-size="0.2" r="0.04" stroke-width="0.02"/>
<circle cx="10" cy="7.5" fill="red" font-size="0.2" r="0.04" stroke-width="0.02"/>
<text dominant-baseline="hanging" fill="black" font-size="0.2" stroke-width="0.02" text-anchor="middle" x="27.5" y="14.1">0</text>
<line font-size="0.2" stroke="black" stroke-width="0.02" x1="13" x2="28.5" y1="8.5" y2="8.5"/>
<line font-size="0.2" stroke="purple" stroke-width="0.02" x1="28.5" x2="28.5" y1="8.5" y2="14"/>
<circle cx="28.5" cy="8.5" fill="red" font-size="0.2" r="0.06" stroke-width="0.02"/>
<circle cx="28.5" cy="14" fill="blue" font-size="0.2" r="0.04" stroke-width="0.02"/>
<circle cx="13" cy="8.5" fill="red" font-size="0.2" r="0.04" stroke-width="0.02"/>
<text dominant-baseline="hanging" fill="black" font-size="0.2" stroke-width="0.02" text-anchor="middle" x="28.5" y="14.1">0</text>
<line font-size="0.2" stroke="black" stroke-width="0.02" x1="16" x2="29.5" y1="9.5" y2="9.5"/>
<line font-size="0.2" stroke="purple" stroke-width="0.02" x1="29.5" x2="29.5" y1="9.5" y2="14"/>
<circle cx="29.5" cy="9.5" fill="red" font-size="0.2" r="0.06" stroke-width="0.02"/>
<circle cx="29.5" cy="14" fill="blue" font-size="0.2" r="0.04" stroke-width="0.02"/>
<circle cx="16" cy="9.5" fill="red" font-size="0.2" r="0.04" stroke-width="0.02"/>
<text dominant-baseline="hanging" fill="black" font-size="0.2" stroke-width="0.02" text-anchor="middle" x="29.5" y="14.1">0</text>
<rect fill="transparent" font-size="0.2" height="1" stroke="green" stroke-width="0.02" width="4" x="30" y="15"/>
<text dominant-baseline="hanging" fill="black" font-size="0.4" stroke-width="0.04" text-anchor="start" x="30" y="15">0</text>
<text dominant-baseline="auto" fill="red" font-size="0.2" stroke-width="0.02" text-anchor="middle" x="32" y="15.4166666666667">or</text>
<text dominant-baseline="hanging" fill="darkblue" font-size="0.2" stroke-width="0.02" text-anchor="middle" x="32" y="15.5833333333333">o_4</text>
<line font-size="0.2" stroke="black" stroke-width="0.02" x1="10" x2="30.5" y1="7.5" y2="7.5"/>
<line font-size="0.2" stroke="purple" stroke-width="0.02" x1="30.5" x2="30.5" y1="7.5" y2="15"/>
<circle cx="30.5" cy="7.5" fill="red" font-size="0.2" r="0.06" stroke-width="0.02"/>
<circle cx="30.5" cy="15" fill="blue" font-size="0.2" r="0.04" stroke-width="0.02"/>
<circle cx="10" cy="7.5" fill="red" font-size="0.2" r="0.04" stroke-width="0.02"/>
<text dominant-baseline="hanging" fill="black" font-size="0.2" stroke-width="0.02" text-anchor="middle" x="30.5" y="15.1">0</text>
<line font-size="0.2" stroke="black" stroke-width="0.02" x1="13" x2="31.5" y1="8.5" y2="8.5"/>
<line font-size="0.2" stroke="purple" stroke-width="0.02" x1="31.5" x2="31.5" y1="8.5" y2="15"/>
<circle cx="31.5" cy="8.5" fill="red" font-size="0.2" r="0.06" stroke-width="0.02"/>
<circle cx="31.5" cy="15" fill="blue" font-size="0.2" r="0.04" stroke-width="0.02"/>
<circle cx="13" cy="8.5" fill="red" font-size="0.2" r="0.04" stroke-width="0.02"/>
<text dominant-baseline="hanging" fill="black" font-size="0.2" stroke-width="0.02" text-anchor="middle" x="31.5" y="15.1">0</text>
<line font-size="0.2" stroke="black" stroke-width="0.02" x1="16" x2="32.5" y1="9.5" y2="9.5"/>
<line font-size="0.2" stroke="purple" stroke-width="0.02" x1="32.5" x2="32.5" y1="9.5" y2="15"/>
<circle cx="32.5" cy="9.5" fill="red" font-size="0.2" r="0.06" stroke-width="0.02"/>
<circle cx="32.5" cy="15" fill="blue" font-size="0.2" r="0.04" stroke-width="0.02"/>
<circle cx="16" cy="9.5" fill="red" font-size="0.2" r="0.04" stroke-width="0.02"/>
<text dominant-baseline="hanging" fill="black" font-size="0.2" stroke-width="0.02" text-anchor="middle" x="32.5" y="15.1">0</text>
<line font-size="0.2" stroke="black" stroke-width="0.02" x1="19" x2="33.5" y1="10.5" y2="10.5"/>
<line font-size="0.2" stroke="purple" stroke-width="0.02" x1="33.5" x2="33.5" y1="10.5" y2="15"/>
<circle cx="33.5" cy="10.5" fill="red" font-size="0.2" r="0.06" stroke-width="0.02"/>
<circle cx="33.5" cy="15" fill="blue" font-size="0.2" r="0.04" stroke-width="0.02"/>
<circle cx="19" cy="10.5" fill="red" font-size="0.2" r="0.04" stroke-width="0.02"/>
<text dominant-baseline="hanging" fill="black" font-size="0.2" stroke-width="0.02" text-anchor="middle" x="33.5" y="15.1">0</text>
<rect fill="transparent" font-size="0.2" height="1" stroke="green" stroke-width="0.02" width="5" x="34" y="16"/>
<text dominant-baseline="hanging" fill="black" font-size="0.4" stroke-width="0.04" text-anchor="start" x="34" y="16">1</text>
<text dominant-baseline="auto" fill="red" font-size="0.2" stroke-width="0.02" text-anchor="middle" x="36.5" y="16.4166666666667">or</text>
<text dominant-baseline="hanging" fill="darkblue" font-size="0.2" stroke-width="0.02" text-anchor="middle" x="36.5" y="16.5833333333333">o_5</text>
<line font-size="0.2" stroke="black" stroke-width="0.02" x1="10" x2="34.5" y1="7.5" y2="7.5"/>
<line font-size="0.2" stroke="purple" stroke-width="0.02" x1="34.5" x2="34.5" y1="7.5" y2="16"/>
<circle cx="34.5" cy="7.5" fill="red" font-size="0.2" r="0.06" stroke-width="0.02"/>
<circle cx="34.5" cy="16" fill="blue" font-size="0.2" r="0.04" stroke-width="0.02"/>
<circle cx="10" cy="7.5" fill="red" font-size="0.2" r="0.04" stroke-width="0.02"/>
<text dominant-baseline="hanging" fill="black" font-size="0.2" stroke-width="0.02" text-anchor="middle" x="34.5" y="16.1">0</text>
<line font-size="0.2" stroke="black" stroke-width="0.02" x1="13" x2="35.5" y1="8.5" y2="8.5"/>
<line font-size="0.2" stroke="purple" stroke-width="0.02" x1="35.5" x2="35.5" y1="8.5" y2="16"/>
<circle cx="35.5" cy="8.5" fill="red" font-size="0.2" r="0.06" stroke-width="0.02"/>
<circle cx="35.5" cy="16" fill="blue" font-size="0.2" r="0.04" stroke-width="0.02"/>
<circle cx="13" cy="8.5" fill="red" font-size="0.2" r="0.04" stroke-width="0.02"/>
<text dominant-baseline="hanging" fill="black" font-size="0.2" stroke-width="0.02" text-anchor="middle" x="35.5" y="16.1">0</text>
<line font-size="0.2" stroke="black" stroke-width="0.02" x1="16" x2="36.5" y1="9.5" y2="9.5"/>
<line font-size="0.2" stroke="purple" stroke-width="0.02" x1="36.5" x2="36.5" y1="9.5" y2="16"/>
<circle cx="36.5" cy="9.5" fill="red" font-size="0.2" r="0.06" stroke-width="0.02"/>
<circle cx="36.5" cy="16" fill="blue" font-size="0.2" r="0.04" stroke-width="0.02"/>
<circle cx="16" cy="9.5" fill="red" font-size="0.2" r="0.04" stroke-width="0.02"/>
<text dominant-baseline="hanging" fill="black" font-size="0.2" stroke-width="0.02" text-anchor="middle" x="36.5" y="16.1">0</text>
<line font-size="0.2" stroke="black" stroke-width="0.02" x1="19" x2="37.5" y1="10.5" y2="10.5"/>
<line font-size="0.2" stroke="purple" stroke-width="0.02" x1="37.5" x2="37.5" y1="10.5" y2="16"/>
<circle cx="37.5" cy="10.5" fill="red" font-size="0.2" r="0.06" stroke-width="0.02"/>
<circle cx="37.5" cy="16" fill="blue" font-size="0.2" r="0.04" stroke-width="0.02"/>
<circle cx="19" cy="10.5" fill="red" font-size="0.2" r="0.04" stroke-width="0.02"/>
<text dominant-baseline="hanging" fill="black" font-size="0.2" stroke-width="0.02" text-anchor="middle" x="37.5" y="16.1">0</text>
<line font-size="0.2" stroke="black" stroke-width="0.02" x1="22" x2="38.5" y1="11.5" y2="11.5"/>
<line font-size="0.2" stroke="purple" stroke-width="0.02" x1="38.5" x2="38.5" y1="11.5" y2="16"/>
<circle cx="38.5" cy="11.5" fill="red" font-size="0.2" r="0.06" stroke-width="0.02"/>
<circle cx="38.5" cy="16" fill="blue" font-size="0.2" r="0.04" stroke-width="0.02"/>
<circle cx="22" cy="11.5" fill="red" font-size="0.2" r="0.04" stroke-width="0.02"/>
<text dominant-baseline="hanging" fill="black" font-size="0.2" stroke-width="0.02" text-anchor="middle" x="38.5" y="16.1">1</text>
<rect fill="transparent" font-size="0.2" height="1" stroke="green" stroke-width="0.02" width="6" x="39" y="17"/>
<text dominant-baseline="hanging" fill="black" font-size="0.4" stroke-width="0.04" text-anchor="start" x="39" y="17">1</text>
<text dominant-baseline="auto" fill="red" font-size="0.2" stroke-width="0.02" text-anchor="middle" x="42" y="17.4166666666667">or</text>
<text dominant-baseline="hanging" fill="darkblue" font-size="0.2" stroke-width="0.02" text-anchor="middle" x="42" y="17.5833333333333">o_6</text>
<line font-size="0.2" stroke="black" stroke-width="0.02" x1="10" x2="39.5" y1="7.5" y2="7.5"/>
<line font-size="0.2" stroke="purple" stroke-width="0.02" x1="39.5" x2="39.5" y1="7.5" y2="17"/>
<circle cx="39.5" cy="7.5" fill="red" font-size="0.2" r="0.06" stroke-width="0.02"/>
<circle cx="39.5" cy="17" fill="blue" font-size="0.2" r="0.04" stroke-width="0.02"/>
<circle cx="10" cy="7.5" fill="red" font-size="0.2" r="0.04" stroke-width="0.02"/>
<text dominant-baseline="hanging" fill="black" font-size="0.2" stroke-width="0.02" text-anchor="middle" x="39.5" y="17.1">0</text>
<line font-size="0.2" stroke="black" stroke-width="0.02" x1="13" x2="40.5" y1="8.5" y2="8.5"/>
<line font-size="0.2" stroke="purple" stroke-width="0.02" x1="40.5" x2="40.5" y1="8.5" y2="17"/>
<circle cx="40.5" cy="8.5" fill="red" font-size="0.2" r="0.06" stroke-width="0.02"/>
<circle cx="40.5" cy="17" fill="blue" font-size="0.2" r="0.04" stroke-width="0.02"/>
<circle cx="13" cy="8.5" fill="red" font-size="0.2" r="0.04" stroke-width="0.02"/>
<text dominant-baseline="hanging" fill="black" font-size="0.2" stroke-width="0.02" text-anchor="middle" x="40.5" y="17.1">0</text>
<line font-size="0.2" stroke="black" stroke-width="0.02" x1="16" x2="41.5" y1="9.5" y2="9.5"/>
<line font-size="0.2" stroke="purple" stroke-width="0.02" x1="41.5" x2="41.5" y1="9.5" y2="17"/>
<circle cx="41.5" cy="9.5" fill="red" font-size="0.2" r="0.06" stroke-width="0.02"/>
<circle cx="41.5" cy="17" fill="blue" font-size="0.2" r="0.04" stroke-width="0.02"/>
<circle cx="16" cy="9.5" fill="red" font-size="0.2" r="0.04" stroke-width="0.02"/>
<text dominant-baseline="hanging" fill="black" font-size="0.2" stroke-width="0.02" text-anchor="middle" x="41.5" y="17.1">0</text>
<line font-size="0.2" stroke="black" stroke-width="0.02" x1="19" x2="42.5" y1="10.5" y2="10.5"/>
<line font-size="0.2" stroke="purple" stroke-width="0.02" x1="42.5" x2="42.5" y1="10.5" y2="17"/>
<circle cx="42.5" cy="10.5" fill="red" font-size="0.2" r="0.06" stroke-width="0.02"/>
<circle cx="42.5" cy="17" fill="blue" font-size="0.2" r="0.04" stroke-width="0.02"/>
<circle cx="19" cy="10.5" fill="red" font-size="0.2" r="0.04" stroke-width="0.02"/>
<text dominant-baseline="hanging" fill="black" font-size="0.2" stroke-width="0.02" text-anchor="middle" x="42.5" y="17.1">0</text>
<line font-size="0.2" stroke="black" stroke-width="0.02" x1="22" x2="43.5" y1="11.5" y2="11.5"/>
<line font-size="0.2" stroke="purple" stroke-width="0.02" x1="43.5" x2="43.5" y1="11.5" y2="17"/>
<circle cx="43.5" cy="11.5" fill="red" font-size="0.2" r="0.06" stroke-width="0.02"/>
<circle cx="43.5" cy="17" fill="blue" font-size="0.2" r="0.04" stroke-width="0.02"/>
<circle cx="22" cy="11.5" fill="red" font-size="0.2" r="0.04" stroke-width="0.02"/>
<text dominant-baseline="hanging" fill="black" font-size="0.2" stroke-width="0.02" text-anchor="middle" x="43.5" y="17.1">1</text>
<line font-size="0.2" stroke="black" stroke-width="0.02" x1="25" x2="44.5" y1="12.5" y2="12.5"/>
<line font-size="0.2" stroke="purple" stroke-width="0.02" x1="44.5" x2="44.5" y1="12.5" y2="17"/>
<circle cx="44.5" cy="12.5" fill="red" font-size="0.2" r="0.06" stroke-width="0.02"/>
<circle cx="44.5" cy="17" fill="blue" font-size="0.2" r="0.04" stroke-width="0.02"/>
<circle cx="25" cy="12.5" fill="red" font-size="0.2" r="0.04" stroke-width="0.02"/>
<text dominant-baseline="hanging" fill="black" font-size="0.2" stroke-width="0.02" text-anchor="middle" x="44.5" y="17.1">0</text>
<rect fill="transparent" font-size="0.2" height="1" stroke="green" stroke-width="0.02" width="7" x="45" y="18"/>
<text dominant-baseline="hanging" fill="black" font-size="0.4" stroke-width="0.04" text-anchor="start" x="45" y="18">1</text>
<text dominant-baseline="auto" fill="red" font-size="0.2" stroke-width="0.02" text-anchor="middle" x="48.5" y="18.4166666666667">or</text>
<text dominant-baseline="hanging" fill="darkblue" font-size="0.2" stroke-width="0.02" text-anchor="middle" x="48.5" y="18.5833333333333">o_7</text>
<line font-size="0.2" stroke="black" stroke-width="0.02" x1="10" x2="45.5" y1="7.5" y2="7.5"/>
<line font-size="0.2" stroke="purple" stroke-width="0.02" x1="45.5" x2="45.5" y1="7.5" y2="18"/>
<circle cx="45.5" cy="7.5" fill="red" font-size="0.2" r="0.06" stroke-width="0.02"/>
<circle cx="45.5" cy="18" fill="blue" font-size="0.2" r="0.04" stroke-width="0.02"/>
<circle cx="10" cy="7.5" fill="red" font-size="0.2" r="0.04" stroke-width="0.02"/>
<text dominant-baseline="hanging" fill="black" font-size="0.2" stroke-width="0.02" text-anchor="middle" x="45.5" y="18.1">0</text>
<line font-size="0.2" stroke="black" stroke-width="0.02" x1="13" x2="46.5" y1="8.5" y2="8.5"/>
<line font-size="0.2" stroke="purple" stroke-width="0.02" x1="46.5" x2="46.5" y1="8.5" y2="18"/>
<circle cx="46.5" cy="8.5" fill="red" font-size="0.2" r="0.06" stroke-width="0.02"/>
<circle cx="46.5" cy="18" fill="blue" font-size="0.2" r="0.04" stroke-width="0.02"/>
<circle cx="13" cy="8.5" fill="red" font-size="0.2" r="0.04" stroke-width="0.02"/>
<text dominant-baseline="hanging" fill="black" font-size="0.2" stroke-width="0.02" text-anchor="middle" x="46.5" y="18.1">0</text>
<line font-size="0.2" stroke="black" stroke-width="0.02" x1="16" x2="47.5" y1="9.5" y2="9.5"/>
<line font-size="0.2" stroke="purple" stroke-width="0.02" x1="47.5" x2="47.5" y1="9.5" y2="18"/>
<circle cx="47.5" cy="9.5" fill="red" font-size="0.2" r="0.06" stroke-width="0.02"/>
<circle cx="47.5" cy="18" fill="blue" font-size="0.2" r="0.04" stroke-width="0.02"/>
<circle cx="16" cy="9.5" fill="red" font-size="0.2" r="0.04" stroke-width="0.02"/>
<text dominant-baseline="hanging" fill="black" font-size="0.2" stroke-width="0.02" text-anchor="middle" x="47.5" y="18.1">0</text>
<line font-size="0.2" stroke="black" stroke-width="0.02" x1="19" x2="48.5" y1="10.5" y2="10.5"/>
<line font-size="0.2" stroke="purple" stroke-width="0.02" x1="48.5" x2="48.5" y1="10.5" y2="18"/>
<circle cx="48.5" cy="10.5" fill="red" font-size="0.2" r="0.06" stroke-width="0.02"/>
<circle cx="48.5" cy="18" fill="blue" font-size="0.2" r="0.04" stroke-width="0.02"/>
<circle cx="19" cy="10.5" fill="red" font-size="0.2" r="0.04" stroke-width="0.02"/>
<text dominant-baseline="hanging" fill="black" font-size="0.2" stroke-width="0.02" text-anchor="middle" x="48.5" y="18.1">0</text>
<line font-size="0.2" stroke="black" stroke-width="0.02" x1="22" x2="49.5" y1="11.5" y2="11.5"/>
<line font-size="0.2" stroke="purple" stroke-width="0.02" x1="49.5" x2="49.5" y1="11.5" y2="18"/>
<circle cx="49.5" cy="11.5" fill="red" font-size="0.2" r="0.06" stroke-width="0.02"/>
<circle cx="49.5" cy="18" fill="blue" font-size="0.2" r="0.04" stroke-width="0.02"/>
<circle cx="22" cy="11.5" fill="red" font-size="0.2" r="0.04" stroke-width="0.02"/>
<text dominant-baseline="hanging" fill="black" font-size="0.2" stroke-width="0.02" text-anchor="middle" x="49.5" y="18.1">1</text>
<line font-size="0.2" stroke="black" stroke-width="0.02" x1="25" x2="50.5" y1="12.5" y2="12.5"/>
<line font-size="0.2" stroke="purple" stroke-width="0.02" x1="50.5" x2="50.5" y1="12.5" y2="18"/>
<circle cx="50.5" cy="12.5" fill="red" font-size="0.2" r="0.06" stroke-width="0.02"/>
<circle cx="50.5" cy="18" fill="blue" font-size="0.2" r="0.04" stroke-width="0.02"/>
<circle cx="25" cy="12.5" fill="red" font-size="0.2" r="0.04" stroke-width="0.02"/>
<text dominant-baseline="hanging" fill="black" font-size="0.2" stroke-width="0.02" text-anchor="middle" x="50.5" y="18.1">0</text>
<line font-size="0.2" stroke="black" stroke-width="0.02" x1="7" x2="51.5" y1="6.5" y2="6.5"/>
<line font-size="0.2" stroke="purple" stroke-width="0.02" x1="51.5" x2="51.5" y1="6.5" y2="18"/>
<circle cx="51.5" cy="6.5" fill="red" font-size="0.2" r="0.06" stroke-width="0.02"/>
<circle cx="51.5" cy="18" fill="blue" font-size="0.2" r="0.04" stroke-width="0.02"/>
<circle cx="7" cy="6.5" fill="red" font-size="0.2" r="0.04" stroke-width="0.02"/>
<text dominant-baseline="hanging" fill="black" font-size="0.2" stroke-width="0.02" text-anchor="middle" x="51.5" y="18.1">0</text>
</svg>
